<?xml version="1.0" encoding="UTF-8"?>
<svg id="Lag_1" xmlns="http://www.w3.org/2000/svg" version="1.1" viewBox="0 0 143.6 108.8">
  <!-- Generator: Adobe Illustrator 30.0.0, SVG Export Plug-In . SVG Version: 2.1.1 Build 123)  -->
  <defs>
    <style>
      .st0 {
        fill: #1d1d1d;
      }
    </style>
  </defs>
  <g>
    <polygon class="st0" points="59.3 38.4 59.4 38.3 59.3 37.9 59.3 38.4"/>
    <path class="st0" d="M59.3,36.2c0,0,0,0,0,0,0,.5,0,.9.1,1.3.2-.6-.2-1.1,0-1.4Z"/>
    <path class="st0" d="M59.4,35.8c.2-.5.1-.7.1-.9,0,.2-.3.9-.1.9Z"/>
    <path class="st0" d="M99.2,30s-.1,0-.2,0c0,0,.1,0,.2,0Z"/>
    <path class="st0" d="M107,38.3h.1c-.2-2.2-1.4-4.7-3.3-6.3h.1c-1.1-1-2.5-1.7-3.9-2.3-1.4-.6-2.9-.9-4.3-.9-1.5,0-2.9.1-4.4.4-1.5.3-2.9.6-4.4,1,0,0,.1,0,.2-.1-.3.1-.6.3-.9.4,0,0,0,0,.2-.1-.6.1-1.5.5-2.3.9-.8.4-1.5.9-1.9,1-.3.2-.4.3-.2.3-.6.3-1.2.5-1.7.8-.3.2-.5.3-.8.5l-.4.3c-.2.1-.4.2-.6.3-.2,0-.5-.3-.6-.5-.2-.2-.2-.4-.3-.7-.2-.4-.3-.9-.5-1.2-.5-.6-1.3-1-2.1-1.3-.8-.3-1.7-.5-2.6-.7-.8-.2-1.7-.3-2.6-.3-.2,0-.3,0-.2-.1-1,0-2.1,0-3.1.1-1.1,0-2.1,0-3,.4-1.9.7-3.1,2.5-3.8,4.4,0,.2.2-.4.2,0,.5-1.2.8-2.3,1.7-3.1v.2c.6-.5,0-.3.6-.8.3-.2,0,.1.1,0,.7-.5,1.5-.9,2.4-1,.4,0,.9,0,1.4-.1.5,0,.9,0,1.4-.1.4.1,2,0,2.7.2.5,0,1,0,1.2,0,.7.1,1.4.3,2.2.5.7.2,1.4.4,2.1.7.6.3,1.3.7,1.5,1.2.1.3.2.7.4,1.1,0,.2.1.4.4.7.2.3.5.4.7.6.8-.4,1-.6,1.4-.9.4-.3.7-.5,1.1-.6.9-.3,1.7-.8,2.5-1.2,1.6-.9,3.3-1.5,5.1-1.9,3-.9,7-1.4,10.5-.2,0,0,0,0,0,0,1.2.3,2.8,1.1,3.9,2,.3.2.7.5,1,.7,1.2,1.3,2.1,2.9,2.4,4.6.3,1.7,0,3.5-.7,5.1-.7,1.6-1.8,3-2.9,4.4-.3.4-.6.7-.8,1.1l-.4.6c-.1.2-.3.3-.4.5-.3.3-.6.7-.9,1-.3.3-.7,1-.7,1.6.3.1.6.3.9.3.4,0,.5,0,.8,0,.5,0,.9,0,1.3,0,.8,0,1.7.5,2.7.5.7,0,1.3,0,1.8,0,.5.1,1.1.4,1.7.7,1.2.5,2.4.7,3.4,1.3.5.3.9.6,1.3,1.1.4.4.8.9,1.1,1.4.7,1,1.3,2,1.7,3,.9,2.1,1,4.5.2,6.7-.8,2.2-2.3,4.1-4,5.9,0,0,0,0,0-.2-2,2-4.3,3.4-6.6,4.8h0c-2.8,1.7-6,3.6-9.5,3.3-.9,0-1.7-.1-2.6-.3-.8-.1-1.7-.3-2.6-.4-.9,0-1.7-.1-2.5-.2-.8-.1-1.6-.2-2.3-.7-.3-.2-.6-.5-.8-.7-.3-.3-.5-.7-.8-1-.5,0-.8.6-1,.9-.2.4-.4.8-.6,1.3-.2.4-.4.8-.7,1.2-.3.4-.5.8-.8,1.2-.5.8-1,1.6-1.5,2.4-.6.8-1.2,1.5-1.9,2.1-1.4,1.3-3.1,2.3-4.9,3-1.8.7-3.8.6-5.7.4h0c-1.7-.3-3.3-.7-4.9-1-.8-.2-1.6-.3-2.4-.5-.8-.2-1.6-.4-2.4-.7-1.5-.6-3-1.2-4.5-2-.7-.4-1.4-.8-2.1-1.3-.7-.4-1.4-.9-1.7-1.6-.3-.8,0-1.6.4-2.4.2-.4.3-.8.5-1.2,0-.2.2-.4.2-.7,0-.2,0-.6-.2-.8-.2-.2-.5-.3-.7-.3-.2,0-.5,0-.7.1-.4.1-.9.3-1.3.4-.8.3-1.7.4-2.6.5-1.8.2-3.5,0-5.3,0-1.7-.2-3.5-.3-5.2-.8-2-.7-4.3-1.7-6.2-3.3-.9-.8-1.7-1.7-2.3-2.8-.5-1.1-.8-2.2-.7-3.2,0-1,.4-2,.6-3,.2-1,.5-2,.9-2.9.4-.9.8-1.8,1.5-2.6.6-.8,1.4-1.4,2.3-2,1.7-1.1,3.6-1.9,5.5-2.5,1-.3,1.9-.7,3-.8,1-.1,2.1,0,3.1-.2.4,0,1-.2,1-.6,0-.4-.5-.7-.8-1.1-.4-.4-.4-.9-.7-1.2-.3-.4-.7-.6-1-.9-.8-.6-1.4-1.3-2.1-2-.6-.7-1.2-1.5-1.6-2.4-.4-.9-.3-1.9-.3-2.9,0-.5,0-.9,0-1.4,0-.5,0-1,.2-1.4.3-.9.8-1.7,1.2-2.6.4-.8,1-1.6,1.7-2.3.3-.3.7-.6,1.1-.7.4-.2.9-.3,1.3-.4.8-.4,1.7-.8,2.6-1,.9-.2,1.9-.2,2.9,0,1,0,1.9.2,2.8.5h-.1c.6.2,1.4.4,2.1.6.7.2,1.3.5,1.5.9h-.1c.5.5,1.6.6,1.9,1.1h.1c.7.6,0,.2.5.6.2.2.2,0,.5.4-.2.3,1.7,1.4,1.5,1.7-.3-.3.4.6-.4,0,0,.1.4.4.6.7.2.3.2.5.3.5.2.1.4.7.4-.3,0,0-.1-.1-.2-.2,0-.3,0-.3,0-.4-.4-.6-.6-.8-.8-1.1-.2-.2-.4-.5-.6-.8,0,0,0,0,0,0-.5-.3-1.1-.9-1.4-1.2v-.2c-.2-.3-1.3-.7-.9-.6-1-.7-2.2-1.4-3.5-1.9-1.3-.5-2.7-.7-4.1-.8-.4,0-2.1,0-1.5.2-.4,0-1.1,0-1.8,0-.7.2-1.4.5-1.7.6,0,0,0,0,.2-.1-.8.3-1,.4-1.4.6-.4.2-.8.3-1.6.6,0,.2-.6.6-1.1,1.2-.5.6-.8,1.3-.9,1.7-.1.1-.2.2-.2,0-.3.5-.6,1.1-.9,1.7-.3.6-.5,1.3-.5,2,0,1.2-.2,2.4-.1,3.6,0,.5.2,1.1.5,1.6.2.5.5,1,.8,1.5.6.9,1.4,1.7,2,2.1.4.5,1.2,1,1.7,1.6.1.2.2.2.3.4,0,.2.2.4.3.7.2.3.4.4.6.6l.3.3s0,0,0,0c0,0,0,0,0,.1,0,0,0,0,0,0,0,0-.1,0-.2,0-.4,0-1,0-1.5.1-1,0-2.1,0-2.7.3-.3,0-.7,0-1.1,0-.4,0-.8.2-1.2.3-1.2.5-3.9,1.4-5.6,2.7-.4,0-1.4,1-1.6,1-1.1,1.1-1.9,2.5-2.4,4-.5,1.5-.8,3.1-1.1,4.7-.3,1.7,0,3.5.8,5,.8,1.5,1.9,2.8,3.2,3.7h0c.7.4,1.6.7,2.4.9,0,0,0,0-.1,0,1,.5,1.9,1,3,1.3t-.2,0c1,.2,2.1.7,3.4.7h0c0,0,.8,0,.8,0,0,0,0,.1-.5,0,2.4.3,4.8.6,7.3.4.6,0,1.2-.1,1.9-.3.7-.1,1.2-.4,1.8-.6.3,0,.6-.2.8-.2.1,0,.2,0,.2,0,0,0,0,0,.1,0,0,0,0,.3,0,.6l-.2.4-.2.4c-.2.5-.5,1.1-.6,1.8-.1.7-.1,1.4.3,2.1.4.6,1,.9,1.5,1.3.5.3,1.1.6,1.6.9,2.2,1.2,4.4,2.2,6.8,2.9h-.4c.6.1,1.3.2,1.9.3,0,0-.1,0-.2,0,2.4.5,4.8,1,7.2,1.4,0,0-.4,0,0,.1,1.8,0,2.9.4,3.7,0,0,0,.2,0,0,.1,1.3-.2,2.5-.6,3.6-1.2,1.1-.6,2.2-1.3,3.1-2.1,1-.8,1.8-1.7,2.6-2.8.7-1,1.3-2.1,2-3.1,0-.1.2-.3.3-.4.1-.2.2-.4.3-.5.2-.3.3-.7.4-1,.1-.3.3-.7.4-1,.1-.2.2-.3.3-.4,0,0,.2-.2.3-.1l.6.7c.2.3.5.5.8.8.6.5,1.3.7,2,.8,1.4.3,2.8.2,4.2.4h0c2.7.5,5.6,1,8.3,0,2.7-1,5.2-2.4,7.6-4,2-1.3,3.2-2.3,4.9-4h0c1.3-1.5,2.7-3.1,3.6-5.1.2-.5.4-1,.6-1.5,0-.5.2-1.1.3-1.6,0-.5,0-1.1,0-1.6-.1-.5-.2-1.1-.4-1.5l.2.3c-.3-.6-.8-2.4-1-2.1,0-.2-.2-.5-.3-.7-.8-1.2-1.5-2.2-2.4-3.2-.4-.5-1-1-1.7-1.3-.7-.3-1.5-.5-2.3-.7h.2c-.4-.1-.9-.2-1.4-.4-.4-.2-.8-.4-1.1-.5.1,0,0,0,.3,0-.6-.3-1.3-.4-1.9-.3-.7,0-1.3,0-1.9-.2-.6-.2-1.4-.2-2-.2-.7,0-1.4.2-1.9-.1,0-.4.2-.7.4-1,0,.1,0,.2,0,.3.3-.6,1.1-1.3,1.7-2.2.6-.9,1.4-1.8,1.9-2.6h0c0,.1.5-.7.5-.7h.1c1.5-2,2.4-4.4,2.3-6.9Z"/>
    <path class="st0" d="M86.5,30.4h0c0,0,0,0,0,0Z"/>
    <path class="st0" d="M57.9,36.8c0,0,.1.1.2.2,0,0-.1-.1-.2-.2Z"/>
  </g>
  <g>
    <polygon class="st0" points="71.8 50.1 71.8 50.1 71.9 50.1 71.8 50.1"/>
    <path class="st0" d="M72.4,50.2s0,0,0,0c-.1,0-.2,0-.4,0,0,.2.3-.1.4,0Z"/>
    <path class="st0" d="M72.4,50.2c0,0,.2,0,.2,0,0,0-.2,0-.2,0Z"/>
    <path class="st0" d="M79.3,51.2s0,0,0,0c0,0,0,0,0,0Z"/>
    <path class="st0" d="M80.9,52.2h0c-.3-.3-.4-.7-.8-.9h0c-.4-.3-.8-.5-1.2-.8-.4-.2-.8-.4-1.3-.5,0,0,0,0,0,0,0,0-.1,0-.2,0,0,0,0,0,0,0-.1-.2-.6,0-.7-.2,0,0,0,0,0,.1-.3,0-.7.2-1.1.2-.4,0-.8,0-1.2,0,0,0,0,0,0-.1-.5.2-1.2.5-2,.4,0,0,0,0,0,.1.3.1.5-.2.7,0h0c.2,0,0,0,.2,0,0,0,0,0,0,0,.3,0,.6-.1.8-.3,0,.1.3,0,.3.1,0,0,.1,0,.2-.1.2,0,.5.1.8.1.3,0,.7,0,.9-.1.4-.1.9,0,1.3.2.3,0,.5.1.7.3.1,0,.2.2.3.3.1.1.2.2.4.3,0,0,0,0,0,0,.2,0,.5.2.6.3h.2c.2.3.4.5.5.8,0,.3,0,.6,0,.9,0,.3-.3.6-.5.8-.2.2-.5.5-.7.7-1.2,1-2.5,1.4-3.8,2.2,0,0,0,0,0,0-.4.2-.8.2-1.2.3h0c-1,.4-2.1.3-3.1.7-.6,0-1.3.2-1.9.3-.7.1-1.3.3-2,.3h0c-1.1,0-1.8-1.1-2.9-1.1-.1,0-.3,0-.4-.1h-.2s-.2-.1-.2-.1l-.4-.2c-.1,0-.3-.1-.5,0-.3,0-.6,0-.7-.2-.2-.2-.2-.6,0-.8.2-.3.3-.6.5-1,.2-.4.4-.7.7-.8,1.3-.4,2.1-1.3,3.4-1.8.6,0,1.2-.2,1.7-.4.5-.2,1-.5,1.7-.6.5-.4,1.2-.1,1.7-.3h0c.3,0,.4-.4.6-.2h0c.1.1.2-.4.3-.2h0c.1-.1,0,0,.1,0,0,0,0-.1,0-.1,0,.3.3-.1.4.2,0,0,.1.1,0,.2,0,0,.3,0,.2-.2,0-.2,0-.3,0-.4h0c0,0,0,0,0,0-.2,0-.2-.1-.4-.2,0,0,0,0,0,0,0,.1-.2,0-.3,0h0c0-.2-.2.2-.2,0-.4.1-.8.2-1.2.3,0,0-.3,0-.2.2-.2-.1-.5-.1-.6,0,0,0,0,0,0,0-.3-.2-.2.3-.5,0,0,.2-.4,0-.4.3,0,0,0,0,0-.1-.2,0-.4.1-.6.2-.2,0-.3,0-.5.1-.2.3-.6,0-.8.4-.2,0-.5,0-.8.1h0c-.3,0-.7.1-.9.4-.2-.2-.3-.1-.5-.1-.2.2-.6.3-.9.6,0,0-.2.2-.3,0-.3.4-.7.6-1.2,1-.4.4-.8.7-1.2,1.1h0c0,.1,0,.4.1.5,0,0,0,0,0,0,0,.2-.3.3-.3.5,0,0,0,0,0,0,0,.2-.2.4,0,.7h0c0,0,0,.1,0,.2,0,0-.1,0-.1,0,0,.3.2.6.5.8.1,0,.3.1.5.1.1,0,.2,0,.3,0,0,0,.4.3,1,.4.3,0,.7,0,1.1.1.3.1.7.3,1,.4h0s.3,0,.3,0c0,0,0,0,0,0,.3.2.8.2,1.2.3,0,0,0,0,0,.1.3-.1.5.2.6-.1,0,0,0,0,0,.1.8-.2,1.5-.4,2.3-.4.6-.4,1.3-.2,2-.5h0c.8-.3,1.7-.2,2.6-.5.4,0,.6-.2.9-.3h0c.5-.4,1.3-.2,1.8-.7h0c0,0,.4,0,.2-.2h.1c.2-.5.8-.3,1.1-.8h0c0,0,.2-.2.3-.2,0,0,0,0,0,0,.5-.1.7-.7,1-1h0c0-.1.4-.4.5-.8h0s0-.1,0-.1h0c.1-.4,0-.8,0-1.2Z"/>
    <path class="st0" d="M77.7,49.9h0s0,0,0,0Z"/>
    <path class="st0" d="M72.8,50.1s0,0,0,0c0,0,0,0,0,0Z"/>
  </g>
</svg>