<?xml version="1.0" encoding="UTF-8"?>
<svg id="Lag_1" xmlns="http://www.w3.org/2000/svg" version="1.1" viewBox="0 0 143.6 108.8">
  <!-- Generator: Adobe Illustrator 30.0.0, SVG Export Plug-In . SVG Version: 2.1.1 Build 123)  -->
  <defs>
    <style>
      .st0 {
        fill: #1d1d1d;
      }
    </style>
  </defs>
  <g>
    <polygon class="st0" points="74.7 18.9 74.8 18.9 75 18.8 74.7 18.9"/>
    <path class="st0" d="M76.4,18.8s0,0,0,0c-.3,0-.7.1-1,.2.4.2.8-.3,1.1-.1Z"/>
    <path class="st0" d="M76.7,18.8c.4.1.6,0,.7,0-.2,0-.7-.2-.7,0Z"/>
    <path class="st0" d="M102.3,41.7s0,0,0-.1c0,0,0,0,0,.1Z"/>
    <path class="st0" d="M105.7,50.3h.1c-.5-1.6-.9-3.5-1.6-5.3h0c-.8-2.1-1.7-4.2-3-6-1.3-1.9-2.8-3.5-4.1-5.4,0,0,0,0,.1.1-.2-.2-.4-.3-.5-.5,0,0,0,0,.1,0-.5-.9-1.4-2.5-1.7-3.1-.2-.2-.3-.3-.3-.1-.5-.7-1.3-1.1-2.1-1.6-.4-.2-.8-.6-1.1-.9-.4-.3-.7-.6-1.1-.9-1.5-1.2-3-2.2-4.6-3.2-.1-.1-.1-.2,0-.2-2.8-1.4-5.5-3.5-8.5-4.3-.1,0,.3.2,0,.2.9.3,1.8.4,2.6.9h-.1c.6.3.2,0,.8.3.2.2-.1,0,0,.1,1.3.6,2.5,1.5,3.8,2.1.2.3,1.3.8,1.7,1.3.3.2.6.4.8.4,1,.7,2.1,1.5,3.1,2.3.5.4,1,.8,1.5,1.2.4.4,1,.9,1.6,1.2.6.3,1.1.7,1.5,1.1.4.4.7,1,1,1.6.3.6.6,1.2,1,1.7.4.5.8,1.1,1.1,1.6.9.9,1.7,2,2.5,3.1.8,1.1,1.5,2.4,2.1,3.7,0,0,0,0,0,0,.5.8,1.1,2,1.4,3.1l.4.9c.5,1.6,1,3.3,1.2,4.9.3,1.7.4,3.4.4,5.1,0,.8,0,1.7-.3,2.5-.2.8-.4,1.7-.4,2.6-.2,1.7-.3,3.5-.7,5.1-.1.9-.7,1.6-1.1,2.6,0,.2-.2.5-.2.8,0,.3,0,.5,0,.7,0,.2,0,.4-.1.6l-.2.6c-.6,1.7-1.5,3.3-2.4,4.8-1.9,2.9-4.9,5.1-8,7.3,0,0,0,0,0-.1-1.9,1.2-3.5,2.4-5.4,3h0c-1.2.4-2.4,1-3.7,1.3-1.3.3-2.6.5-3.9.6-1.4,0-2.6.4-3.9.6-.6,0-1.3,0-1.9.1-.6,0-1.3.1-1.9.2-1.5,0-3.1.2-4.6.2-1.6,0-3.2-.4-4.7-1-1.5-.6-3-1.3-4.6-1.8-.8-.2-1.6-.4-2.3-.8-.7-.3-1.5-.7-2.1-1.1h0c-1.1-.7-2.2-1.3-3.3-1.9-1.1-.6-2.2-1.3-3-2.2-1.7-1.9-3.6-3.6-5.3-5.4-.8-1-1.6-2.1-2.3-3.2-.6-1.2-1.1-2.4-1.4-3.7-.7-2.6-.8-5.4-.7-8,.2-1.6.1-3.5,0-5.4,0-1.9,0-3.7.5-5.2.8-3.1,1.7-6,2.8-8.9,1.1-2.9,2.3-5.8,4-8.5.9-1.2,1.8-2.3,2.9-3.3,1.1-1,2.3-1.8,3.4-2.7,1.2-.8,2.3-1.7,3.3-2.7,1-1,2.2-1.9,3.5-2.4,1.1-.7,2.5-1.2,3.9-1.4,1.4-.3,2.9-.3,4.4-.5h-.1c1.1,0,2.4-.5,3-.1h-.1c.6.2,1.3-.4,1.7-.2h0c.7,0,0,0,.6,0,.2,0,0-.2.5,0,0,.4,1.7,0,1.7.3-.4,0,.6.2-.3.2.2,0,1.4,0,1.3-.1,0-.2.5-.3-.2-.5h-.1c-.2,0-.2,0-.3,0-.9,0-1-.2-1.7-.3,0,0,0,0,0,0-.4.1-1.1,0-1.4,0h-.1c-.2-.2-1,.2-.8,0-1.9,0-4,0-6.1.3-.3.1-1.6.3-1.1.4-.6-.1-2.1.2-2.7.4,0,0,0,0,.1,0-.6,0-.9.2-1.2.4-.3.2-.6.3-1.1.4,0,.3-1.8.9-2.1,1.5-.1,0-.2,0-.2,0-.8.6-1.5,1.3-2.2,1.9-.7.6-1.4,1.1-2,1.6-.9,1-2.8,1.8-3.5,2.8-.8.6-2.1,1.6-2.8,2.8h0c-1,1.1-2,2.8-2.3,3.8-.5.3-.7.9-1.1,1.4-.4,1-1.3,2.8-1.7,4.3-.2.2-.4,1.2-.6,1.2-1.2,4.2-2.5,9.5-2.7,14.2h0c.1.5.3,1.2.5,1.8,0,0,0,0,0,0,0,.8-.2,1.6-.2,2.5t0-.1c0,.8-.2,1.6,0,2.6h0c0,0,0,.7,0,.7,0,0-.2,0-.1-.4,0,1.8.2,3.7.6,5.5.2.9.5,1.8.9,2.7.4.9.8,1.7,1.4,2.5,1.1,1.6,2.4,2.9,3.8,4.2l2,1.9c.7.6,1.3,1.4,2,2h-.3c.4.2.8.4,1.3.7,0,0,0,0-.2,0,.8.6,1.7.9,2.5,1.3.8.4,1.6.9,2.4,1.3,0,0-.3,0,0,0,1.2.5,1.8,1.2,2.6,1.2,0,0,0,.1,0,.1.9.3,1.8.5,2.7.8.9.3,1.7.7,2.6,1,1.7.7,3.5,1.5,5.5,1.6,1.6,0,3.2-.2,4.9-.3.8,0,1.7-.1,2.5-.1.8,0,1.7-.1,2.5-.3h0c1-.2,2-.4,3.1-.5,1.1,0,2.1-.2,3.2-.4,1.1-.2,2.1-.6,3.1-.9,1-.4,2.1-.6,3.1-1.1.8-.4,1.4-.8,2.1-1.3.6-.4,1.3-.8,2-1.3h0c1.2-.9,2.5-1.8,3.8-2.7,1.3-1,2.5-2.1,3.4-3.5v.2c.1-.5,1.1-1.6.7-1.6l.3-.4c.3-1,.8-1.9,1.3-2.8.4-.9,1-2,.9-3.3v.2c0-.7.5-1.5.7-1.9,0,0,0,0,0,.2.3-.5.6-1,.7-1.6.1-.6.2-1.1.3-1.7.1-1.2.1-2.4.3-3.5v.3c0-.6.2-1.4.4-2.2.2-.8.3-1.7.4-2.4h0c0-.2,0-.4,0-.7h.1c0-1.9-.2-3.8-.5-5.6Z"/>
    <path class="st0" d="M97,33.2h0c0,0,0,0,0,0Z"/>
    <path class="st0" d="M72.2,18.3c0,0,.2,0,.2,0,0,0-.2,0-.2,0Z"/>
  </g>
  <g>
    <polygon class="st0" points="43.4 69.4 43.4 69.3 43.2 69.1 43.4 69.4"/>
    <path class="st0" d="M42.6,68.1s0,0,0,0c.2.2.4.5.6.7-.1-.4-.5-.5-.6-.8Z"/>
    <path class="st0" d="M42.5,67.9c-.1-.3-.2-.4-.3-.5,0,0,.2.6.3.5Z"/>
    <path class="st0" d="M45,37.7s0,0,0,.1c0,0,0,0,0-.1Z"/>
    <path class="st0" d="M49.3,30.8h0c-1,1.1-2,2.5-2.9,3.8h0c-1.1,1.6-2,3.4-2.6,5.2-.6,1.9-1,3.8-1.7,5.7,0,0,0,0,0-.2,0,.2,0,.4-.2.6,0,0,0,0,0-.1-.2.4-.5,1-.7,1.5-.3.5-.4,1.1-.5,1.3,0,.2,0,.3,0,.2,0,.8,0,1.6,0,2.4,0,.8-.1,1.6-.2,2.5,0,1.6,0,3.3.1,4.9,0,.2,0,.2,0,.1.3,2.7.3,5.7,1.3,8.3,0,0,0-.3,0,0-.3-.8-.6-1.5-.7-2.3h0c0-.5-.1,0-.2-.6,0-.2,0,0,0,0-.2-1.2-.3-2.6-.4-3.8,0-.3,0-1.4,0-1.8,0-.3,0-.7-.1-.8,0-1.1,0-2.2,0-3.4,0-1.1.2-2.2.2-3.4,0-.6,0-1.1,0-1.7,0-.5.2-1.1.4-1.6.2-.5.5-1,.8-1.5.2-.5.4-1.1.6-1.6.5-2.1,1.2-4.6,2.3-6.8,0,0,0,0,0,0,.3-.8.9-1.8,1.4-2.6l.4-.7c.9-1.2,1.7-2.4,2.7-3.5,1-1.1,2.1-2.1,3.4-2.9.6-.4,1.3-.8,1.9-1.1.7-.3,1.4-.6,2.1-.9,1.4-.7,2.6-1.5,4-2.1.8-.4,1.6-.3,2.4-.5.4,0,.8-.4,1.2-.5.3-.2.7-.3,1.1-.4,1.6-.3,3.2-.5,4.7-.5,1.6,0,3.1.4,4.6.9,1.5.5,3,1.1,4.5,1.8,0,0,0,0-.1,0,.9.4,1.7.8,2.5,1.2.8.4,1.5.9,2.2,1.5h0c.9.7,1.9,1.3,2.7,2.1.8.8,1.6,1.7,2.3,2.6.7.9,1.6,1.7,2.3,2.6.4.4.7.9,1,1.4.3.5.7.9,1,1.3.8,1.1,1.6,2.1,2.4,3.3.8,1.2,1.3,2.5,1.6,3.9.4,1.4.6,2.8,1,4.2.2.7.5,1.4.6,2,.2.7.3,1.4.4,2.1h0c.1,1.1.2,2.2.3,3.3.2,1.1.3,2.2.2,3.3-.3,2.2-.6,4.3-1,6.6-.2,1.1-.5,2.3-.9,3.3-.4,1.1-1,2.1-1.7,3.1-1.4,1.9-3.3,3.4-5.2,4.7-2.5,1.5-5.3,4.1-7.8,5-2.6,1.1-5.2,1.9-7.8,2.5-2.7.5-5.4,1-8.1.9-1.3,0-2.5-.3-3.8-.7-1.2-.4-2.4-.9-3.6-1.4-1.2-.5-2.4-.8-3.6-1.2-.6-.2-1.2-.4-1.8-.6-.6-.3-1.1-.6-1.6-.9-2.1-1.1-3.8-3.2-5.3-5.3h0c-.5-.7-1.3-1.5-1.5-2.1h0c-.2-.4-.8-.8-.9-1.1h0c-.3-.5,0-.1-.2-.5,0-.1-.1,0-.3-.3.1-.2-.8-1.2-.7-1.4.2.3-.2-.5.2.1,0-.2-.7-1-.7-.9-.1,0-.4-.3-.1.2h.1c0,.3,0,.2,0,.3.4.7.4.8.7,1.3,0,0,0,0,0,0,.3.3.5.8.7,1h0c0,.3.6.8.4.7.9,1.3,2,2.9,3.1,4.3.2.2.9,1.1.7.7.2.4,1.2,1.4,1.6,1.7,0,0,0,0-.1,0,.7.7,1,.6,1.7,1.3,0,0,.4.2.8.5.4.2.9.5,1.1.5,0,0,.1.1,0,.1,1.6.6,3.3,1,4.6,1.5,1.1.3,2.6,1.2,3.7,1.4.8.3,2.1.7,3.3.8h-.1c1.3.2,3,.1,3.9,0,.4.1,1,0,1.6,0,.9-.2,2.7-.4,4-.7.2,0,1.1-.3,1.2-.2,3.7-1,8.1-2.8,11.5-5.2h0c.4-.3.8-.7,1.2-1.1,0,0,0,0,0,0,.6-.4,1.2-.7,1.8-1.2t0,0c.5-.4,1.2-.8,1.8-1.3h0s.4-.4.4-.4c0,0,0,0-.2.2,1.3-1,2.5-2.1,3.5-3.4,1-1.3,1.8-2.8,2.2-4.4.4-1.6.6-3.2.8-4.8.1-.8.2-1.6.3-2.4.1-.8.2-1.6.2-2.5v.2c0-.4,0-.9-.1-1.3,0,0,0,0,0,.1,0-.8-.2-1.6-.3-2.4,0-.8-.2-1.6-.2-2.4,0,0,0,.2,0,0-.2-1.2-.2-1.9-.5-2.4,0,0,0-.1,0,0-.6-1.5-.9-3.1-1.3-4.7-.4-1.6-.8-3.2-1.7-4.7-.8-1.1-1.6-2.3-2.5-3.4-.4-.6-.9-1.2-1.3-1.7-.4-.6-.8-1.2-1.3-1.7h0c-.6-.7-1.3-1.3-1.9-2-.6-.7-1.2-1.5-1.8-2.2-.7-.7-1.4-1.3-2.1-1.9-.8-.5-1.5-1.2-2.3-1.7-1.3-.9-2.4-1.2-3.8-1.9h0c-2.4-1.1-5.1-2.5-7.9-2.6h.2c-.4,0-1.7-.1-1.5,0-.2,0-.3,0-.5,0-.9.2-1.8.2-2.7.4-.5,0-.9.1-1.4.3-.2,0-.5.1-.7.2-.2.1-.5.3-.7.4h.1c-.5.3-1.3.3-1.7.3,0,0,0,0,.2,0-1,0-2,.5-2.9.9-.9.5-1.8,1.1-2.7,1.5l.2-.2c-.8.6-2.6,1.1-3.6,1.8h0c-.2,0-.4.2-.5.3h0c-1.4.9-2.6,2-3.7,3.2Z"/>
    <path class="st0" d="M42.1,45.9s0,0,0,0c0,0,0,0,0,0Z"/>
    <path class="st0" d="M44.5,71.2c0,0,0-.1-.1-.2,0,0,0,.1.1.2Z"/>
  </g>
  <g>
    <polygon class="st0" points="60.9 45.7 60.9 45.7 60.9 45.7 60.9 45.7"/>
    <path class="st0" d="M61.1,45.5s0,0,0,0v.3c0,.1,0-.3,0-.2Z"/>
    <path class="st0" d="M61.1,45.5c0,0,0,0,0-.1,0,0,0,0,0,.1Z"/>
    <path class="st0" d="M63.8,46.6s0,0,0,0c0,0,0,0,0,0Z"/>
    <path class="st0" d="M64.7,47h0c-.2-.1-.2-.4-.4-.5h0c-.3-.4-.7-.6-1-.8,0,0,0,0,0,0,0,0,0,0-.1,0,0,0,0,0,0,0,0-.2-.3,0-.3-.2,0,0,0,0,0,.1-.3-.1-.6-.2-1,0,0,0,0,0,0-.1-.3.2-.6.1-.9.1,0,0,0,0,0,.1.1,0,.2-.2.3,0h0c0,.1,0-.1,0,0,0,0,0,0,0,0,.1,0,.3,0,.4-.1,0,.1.1,0,.2.2,0,0,0,0,0-.1.4.1.8.1,1.1.5.3,0,.3.4.5.5,0,0,0,0,0,0,.1,0,.2,0,.3.2h.2c.1.3.2.5.2.8,0,.3,0,.7,0,1,0,.4,0,.7-.2.9-.1.2-.3.6-.3.9,0,0,0,0,0,0,0,.2-.3.2-.4.4h0c-.2.5-.8.5-1.1.8-.5,0-1.2,0-1.8,0h0c-.5-.1-.7-.7-1.2-.9-.3-.4-1-.5-1.1-1,0-.2-.1-.3-.2-.5-.1-.1-.2-.4,0-.5.1-.1.3-.2.3-.4,0-.1.1-.3.1-.4,0-.3,0-.6,0-1,.2-.2.3-.5.4-.8.1-.2.3-.5.6-.6,0-.2.2-.2.4-.1.2,0,.3.1.4.1h0c0,.1.2-.4.3,0h0c0,.2.1-.3.2-.2h0c0,0,0,0,0,0,0,0,0-.1,0,0,0,.3.2,0,.2.3,0,0,0,.1,0,.2,0,0,.1,0,.1-.1,0-.2,0-.3,0-.4h0s0,0,0,0c0,0,0-.2-.1-.3,0,0,0,0,0,0,0,.1-.1,0-.1,0h0c0-.2-.1.2,0,0-.2,0-.4,0-.6,0,0,0-.2,0-.1.2,0-.2-.3-.2-.4-.1,0,0,0,0,0,0-.3-.2,0,.3-.3,0,.1.2-.3.1-.1.3,0,0,0,0-.1,0-.2.2-.4.3-.5.4,0,.2-.3.2-.1.5-.1,0-.3.2-.3.4h0c0,.1-.1.3,0,.5-.3,0-.2,0-.3,0,0,.1,0,.3,0,.5-.1,0,0,.1-.1,0,.1.2.1.4,0,.7-.1.2-.3.6-.2,1h0c.1,0,.3,0,.5,0,0,0,0,0,0,0,0,0,0,.2,0,.3t0,0c.1,0,0,.2.2.2h0s0,0,0,0c0,0-.1,0-.1,0,.2.3.5.6.8.8.3.2.7.3,1,.6h0s.2,0,.2,0c0,0,0,0,0,0,.1.2.4.1.5.2,0,0,0,0,0,.1.2-.1.2.3.3,0,0,0,0,0,0,.1.4,0,.8,0,1.2,0,.3-.3.7,0,.9-.4h0c.3-.3.7-.3,1-.7.1-.1.2-.2.3-.4h0c0-.4.6-.4.4-.8h0c-.1,0,.1-.1-.1-.2h0c-.3-.3.2-.4,0-.7h0c0,0,0-.1,0-.2,0,0,0,0,0,0,.2-.2,0-.4,0-.7h.1c-.1,0,0-.3,0-.4h0s0,0,0,0h.1c0-.2-.1-.4-.2-.5Z"/>
    <path class="st0" d="M63.4,45.7h0s0,0,0,0Z"/>
    <path class="st0" d="M61,44.9h0s0,0,0,0Z"/>
  </g>
  <g>
    <polygon class="st0" points="76.2 46.4 76.1 46.5 76.2 46.4 76.2 46.4"/>
    <path class="st0" d="M76.5,46.4s0,0,0,0c0,0-.2.1-.3.1,0,.2.3-.2.2,0Z"/>
    <path class="st0" d="M76.5,46.5c0,0,0,0,.1,0,0,0,0,0-.1,0Z"/>
    <path class="st0" d="M78.9,48h0s0,0,0,0Z"/>
    <path class="st0" d="M79.4,48.6h0c-.2-.1,0-.3-.1-.5h0c0-.4-.5-.7-.8-.9,0,0,0,0,0,0,0,0,0,0-.1,0,0,0,0,0,0,0,0-.2-.3,0-.2-.2,0,0,0,0-.1,0-.3-.2-.5-.3-.8-.3,0,0,0,0,0-.1-.3.2-.6,0-.9-.2,0,0,0,0,0,.1,0,.1.3,0,.3,0h0c0,.1,0,0,.1,0,0,0,0,0,0,0,.1,0,.3.1.4,0,0,.1.1,0,.1.2,0,0,0,0,.1-.1.2.1.3.2.4.3h.1c0,.1.1.2.2.2.1,0,.2.1.3.2.3-.1.2.3.4.4,0,0,0,0,0,0,0,0,.2.1.1.2h.1c-.1.6,0,1.2-.1,1.8,0,.3-.1.4-.3.7-.2.2-.3.4-.4.8,0,0,0,0,0,0-.1.2-.3.1-.4.2h0c-.1.1-.3.2-.5.1-.2,0-.4-.1-.7,0-.5-.2-1.1-.1-1.6-.4h0c-.4-.2-.6-.7-1-.9-.2-.4-.8-.6-.8-1.1.2-.3-.5-.6-.2-.9.2-.3.3-.5.4-.7,0-.2,0-.5.2-.8.2-.1.4-.4.6-.5.2-.2.5-.3.8-.2.2-.2.5.2.8.1h0c0,.1.2-.4.3,0h0c0,.2.1-.4.2-.2h0c0,0,0,0,0,0,0,0,0-.1,0,0,0,.3.1,0,.1.3,0,0,0,.1,0,.2,0,0,.1,0,.1-.1,0-.2,0-.3,0-.4h0s0,0,0,0c0,0,0-.2-.1-.3,0,0,0,0,0,0,0,.1,0,0-.1,0h0c0-.2,0,.2,0,0-.2,0-.4,0-.6,0,0,0-.2,0-.1.2,0-.2-.2-.2-.3-.2,0,0,0,0,0,0-.1-.2,0,.2-.3,0,0,.2-.2,0-.2.2,0,0,0,0,0-.1-.2,0-.5,0-.6.2,0,.2-.3.1-.3.4-.1,0-.3,0-.3.2h0c-.1,0-.2.3-.1.4-.2-.1-.2,0-.3,0,0,.2-.1.3,0,.5-.1,0,0,.1-.2,0,.1.5,0,1-.1,1.5h0c.1,0,.3,0,.5,0,0,0,0,0,0,0,0,0,0,.2,0,.3t0,0c0,0,0,.2,0,.2h0s0,0,0,0c0,0-.1,0-.1,0,.1.4.4.7.6.9.3.2.6.4.9.6h0s.2,0,.2,0c0,0,0,0,0,0,0,.2.3.1.5.2,0,0,0,0,0,0,.2,0,0,.3.3,0,0,0,0,0,0,.1.4,0,.8.1,1.1.2.3-.3.5,0,.9,0h0c.4,0,.8.2,1.2,0,.2,0,.2-.2.3-.3h0c0-.3.6-.2.5-.6h0c-.1,0,.1,0,0-.2h0c-.2-.3.3-.3.1-.6h0s0-.1,0-.2c0,0,0,0,0,0,.3-.2,0-.4,0-.6h.1c-.1,0,0-.3,0-.4h0s0,0,0,0h.1c0-.2,0-.3-.1-.5Z"/>
    <path class="st0" d="M78.6,47.2h0s0,0,0,0Z"/>
    <path class="st0" d="M76.3,45.6h0s0,0,0,0Z"/>
  </g>
  <g>
    <polygon class="st0" points="61.5 57.7 61.5 57.7 61.5 57.6 61.5 57.7"/>
    <path class="st0" d="M61.6,57.5s0,0,0,0c0,0,0,.2,0,.3,0,.1,0-.3,0-.2Z"/>
    <path class="st0" d="M61.6,57.5c0,0,0,0,0,0,0,0,0,0,0,0Z"/>
    <path class="st0" d="M64,59.2h0s0,0,0,0Z"/>
    <path class="st0" d="M64.7,59.7h0c-.2-.1-.1-.4-.3-.5h0c-.2-.4-.6-.6-.9-.9,0,0,0,0,0,0,0,0,0,0-.1,0,0,0,0,0,0,0,0-.2-.3,0-.2-.2,0,0,0,0,0,0-.3-.2-.6-.3-1-.4,0,0,0,0,0-.1-.4,0-.5-.2-.7-.2,0,0,0,0,0,.1,0,0,.1-.1.2,0h0c0,.1,0,0,0,0,0,0,0,0,0,0,0,0,.2.1.3,0,0,.1.1,0,0,.2,0,0,0,0,.1,0,.4.3.8.4,1.1.7.4,0,.3.4.5.5,0,0,0,0,0,0,.1,0,.2.1.2.2h.1c0,.3,0,.6,0,.9,0,.3,0,.6,0,.9-.1.7-.5.9-.7,1.6,0,0,0,0,0,0-.1.1-.3.1-.4.2h0c-.3.3-.9,0-1.3.2-.2,0-.6-.2-.9-.1-.3,0-.6,0-.9,0h0c-.5,0-.8-.5-1.1-.7-.2-.4-.7-.7-.6-1.3.2-.3-.4-.7,0-1,.3-.2.4-.5.3-.8,0-.3-.2-.6-.2-.9.2-.2.3-.5.5-.7.2-.2.4-.4.8-.3.2-.3.5.2.8.1h0c0,.1.2-.4.3,0h0c0,.2.1-.4.2-.2h0c0,0,0,0,0,0,0,0,0-.1,0,0,0,.3.2,0,.2.3,0,0,0,.1,0,.2,0,0,.1,0,.1-.1,0-.2,0-.3,0-.4h0s0,0,0,0c0,0,0-.2-.1-.3,0,0,0,0,0,0,0,.1,0,0-.1,0h0c0-.2-.1.2,0,0-.2,0-.4,0-.6,0,0,0-.2,0-.1.2,0-.2-.2-.2-.3-.2,0,0,0,0,0,0-.1-.2,0,.2-.3,0,0,.2-.3,0-.2.3,0,0,0,0,0-.1-.2,0-.5.2-.6.3,0,.2-.3.2-.2.5-.1,0-.3.1-.3.4h0c0,.2-.1.4,0,.5-.3,0-.2,0-.3.2.1.1,0,.3.2.4-.1,0,0,.1-.1,0,.3.4,0,.9-.2,1.4h0c0,0,.3.1.4.2,0,0,0,0,0,0,0,0-.1.2,0,.3t0,0c0,0-.1.2,0,.3h0s0,0,0,0c0,0-.1,0-.1,0,0,.8.8,1.4,1.5,1.8h0c0,0,.1,0,.2,0,0,0,0,0,0,0,.1.2.4,0,.5.1,0,0,0,0,0,.1.2-.1.2.2.3,0,0,0,0,0,0,.1.2,0,.4,0,.6,0,.2,0,.4,0,.5,0,.2-.3.6.2.9,0h0c.4-.1.8,0,1.2-.2.2,0,.2-.2.4-.3h0c0-.3.6-.2.6-.7h0c-.1,0,.1,0,0-.2h0c-.2-.3.3-.3.1-.6h0s0-.1,0-.2c0,0,0,0,0,0,.3-.2,0-.4,0-.6h.1c-.1,0,0-.3,0-.4h0s0,0,0,0h.1c0-.2-.1-.4-.2-.5Z"/>
    <path class="st0" d="M63.6,58.3h0s0,0,0,0Z"/>
    <path class="st0" d="M61.1,56.7h0s0,0,0,0Z"/>
  </g>
  <g>
    <polygon class="st0" points="75.1 57.7 75.1 57.7 75.2 57.7 75.1 57.7"/>
    <path class="st0" d="M75.5,57.7s0,0,0,0c0,0-.2,0-.3.1,0,.2.3-.2.3,0Z"/>
    <path class="st0" d="M75.5,57.7c0,0,0,0,.1,0,0,0,0,0-.1,0Z"/>
    <path class="st0" d="M78,59.5h0s0,0,0,0Z"/>
    <path class="st0" d="M78.5,60.3h0c-.2-.2,0-.4,0-.5h0c0-.2,0-.5-.2-.7-.2-.2-.3-.3-.5-.4,0,0,0,0,0,0,0,0,0,0-.1,0,0,0,0,0,0,0,0-.2-.3,0-.3-.2,0,0,0,0-.1,0-.3-.2-.6-.5-.9-.5,0,0,0,0,0-.1-.3.1-.5,0-.9-.2,0,0,0,0,0,.1,0,.1.3,0,.3,0h0c0,.1,0,0,.1,0,0,0,0,0,0,0,.2,0,.2.1.4,0,0,.1,0,0,0,.2,0,0,0,0,.1,0,.1.1.3.3.5.5.1,0,.2.2.4.2.1,0,.2.1.3.2.4,0,.2.3.4.5h0c0,0,.1.2.1.3h.1c-.1.4-.2.7-.2,1.1,0,.3,0,.7-.1.9-.2.7-.7.8-1.1,1.5,0,0,0,0,0,0-.1.2-.4.2-.5.3h0c-.2.2-.4.3-.6.3-.2,0-.5,0-.7.1-.6,0-1.2,0-1.8-.3h0c-.2-.1-.4-.4-.5-.6-.2-.2-.3-.4-.5-.5,0-.1-.1-.2-.2-.3-.2-.3-.3-.7-.2-1.1.3-.3-.3-.8,0-1,.5-.6.3-1.1.5-1.8.3-.2.4-.4.6-.6.2-.2.5-.4.8-.3.3-.2.6.2.8.2h0c.1.1.2-.4.3,0h0c0,.2.1-.4.2-.2h0c0,0,0,0,0,0,0,0,0-.1,0,0,0,.3.2,0,.2.3,0,0,0,.1,0,.2,0,0,.1,0,.1-.1,0-.2,0-.3,0-.4h0s0,0,0,0c0,0-.1-.2-.2-.3,0,0,0,0,0,0,0,.1-.1,0-.1,0h0c0-.2-.1.2,0,0-.2,0-.4,0-.6,0,0,0-.2,0-.1.2,0-.2-.2-.2-.3-.2,0,0,0,0,0,0-.1-.2-.1.2-.3,0,0,.2-.3,0-.3.3,0,0,0,0,0-.1-.3,0-.5.2-.7.3,0,.2-.3.1-.3.4-.1,0-.3,0-.4.2h0c-.1,0-.3.3-.2.5-.2,0-.2,0-.4,0,0,.2,0,.4,0,.6-.1,0,0,.1-.2.1.2.5,0,1-.2,1.5h0c0,0,.3.1.4.2,0,0,0,0,0,0,0,0-.1.1-.1.2t0,0c0,0-.1.1,0,.2h0s0,0,0,0c0,0-.1,0-.1,0,0,.3,0,.6.1,1.1.2.3.4.4.6.6.2.1.4.3.5.4h0c0,0,0,0,.2,0,0,0,0,0,0,0,0,.2.3.2.5.4,0,0,0,0,0,0,.2,0,.1.3.3,0,0,0,0,0,0,.1.5,0,.8.1,1.2.2.3-.3.7,0,1-.2h0c.4-.1.9-.1,1.2-.4.2,0,.2-.2.4-.3h0c0-.3.7-.1.7-.6h0c0,0,.2,0,0-.2h0c-.2-.3.4-.2.2-.6h0s0-.1,0-.2c0,0,0,0,0,0,.3-.2,0-.5,0-.7h.1c-.1,0,0-.3,0-.4h0s0,0,0,0h.1c0-.2,0-.4,0-.5Z"/>
    <path class="st0" d="M77.8,58.7h0s0,0,0,0Z"/>
    <path class="st0" d="M75.3,57h0s0,0,0,0Z"/>
  </g>
</svg>