<?xml version="1.0" encoding="UTF-8"?>
<svg id="Lag_1" xmlns="http://www.w3.org/2000/svg" version="1.1" viewBox="0 0 143.6 108.8">
  <!-- Generator: Adobe Illustrator 30.0.0, SVG Export Plug-In . SVG Version: 2.1.1 Build 123)  -->
  <defs>
    <style>
      .st0 {
        fill: #1d1d1d;
      }

      .st1 {
        stroke: #000;
        stroke-miterlimit: 10;
      }
    </style>
  </defs>
  <path class="st1" d="M103.7,62.1"/>
  <g>
    <path class="st0" d="M45.7,33.6c0,0,.1,0,.2,0,.2,0,.4,0,.5-.2-.2,0-.4.1-.7.1Z"/>
    <path class="st0" d="M48.2,32.5c0,0,0,0-.1,0-.5.2-.8.5-1.2.8.4-.1.5-.3.7-.4.2-.2.4-.3.6-.3Z"/>
    <path class="st0" d="M48.6,32.3c.6-.3.6-.5.8-.6,0,0-.3.2-.5.3-.2.1-.4.2-.3.2Z"/>
    <path class="st0" d="M56.1,35.2s.1,0,.1,0c0,0-.1,0-.1,0Z"/>
    <path class="st0" d="M55,44.6h.1c-.6-1-1.3-2.1-2.2-3.1-.4-.5-.6-1.1-.9-1.7-.1-.3-.3-.6-.5-.9-.2-.3-.4-.6-.1-.8,0,0,0,0,0,.1.2-.3.6-.4,1-.6l1.1-.6c.7-.4,1.4-.7,2.1-1.1,1.4-.8,2.6-1.8,3.9-2.7,1.2-1,2.5-1.9,3.8-2.8,1.3-.9,2.6-1.9,4-2.7,0,0-.1,0-.2.2.3-.2.5-.4.8-.6,0,0,0,0-.1.2,1.1-.8,3.2-2.5,3.9-3,.3-.2.4-.4.2-.3.7-.6,1.6-1.3,1.9-1.8h0c0-.2,0-.2,0-.2,0,0-.2,0-.3,0-.2,0-.3.1-.5.2-.5.2-1,.3-1.6.5-1.1.1-2.1.3-3.1.6-.5.2-1,.3-1.5.6-.5.2-.9.5-1.5.7-.5.2-1,.3-1.5.6-.5.2-.9.5-1.4.7-.2,0-.3,0-.2,0-1,.5-2.1.9-3.1,1.3-1.1.4-2.1.8-3.2,1.3-1.1.5-2.2.8-3.2,1.3-.5.2-1,.5-1.5.8l-1.5.8c-.1.1.4-.2,0,0,.6-.3,1.2-.6,1.8-1,.5-.4,1.1-.7,1.7-.9h-.1c.9-.2.1,0,1.1-.4.4-.1,0,0,.1,0,1-.4,1.9-.8,2.9-1.2.9-.4,1.9-.7,2.8-1.1.5,0,2.1-.8,2.8-1,.5-.3.9-.5,1.1-.6.4-.2.8-.3,1.3-.5.5-.2.9-.4,1.3-.6.8-.4,1.7-.7,2.6-.9.4-.1.9-.2,1.3-.3.2,0,.4,0,.7,0,.3,0,.5,0,.7-.2l.7-.2h.3c.1-.1.3-.2.3-.2,0,0,.1,0,.2,0,0,0,.2,0,.1,0,0,0,0,.1-.1.2h0c0,0-.2.3-.2.3-.3.3-.6.6-1,.9l-2.1,1.6c-.7.5-1.4,1.1-2.1,1.6-.7.5-1.5.9-2.3,1.4-1.4,1.1-2.9,2.1-4.6,3.2-1.6,1.1-3.2,2.4-4.9,3.5,0,0,0,0,0,0-1.1.7-2.8,1.6-4.3,2.3-.2.1-.4.2-.6.5-.2.2,0,.6,0,.8.3.5.5,1,.8,1.6.2.6.6,1.1,1,1.6.7.9,1.4,1.9,1.9,3,.2.5.4,1.1.6,1.7.2.6.6,1.1.9,1.6l2,3.1c.7,1,1.3,2,1.8,3.1.5,1.1.8,2.3,1.3,3.4.5,1.1.7,2.3,1.3,3.4.4.6.8,1,1.1,1.5,0,.1,0,.2.1.3,0,0,0,.2,0,.2,0,0-.1,0-.2,0-.1,0-.3,0-.4-.1-1.2-.5-2.3-1.4-3.4-2.1-.6-.4-1.1-.7-1.6-1.1-.5-.4-1-.9-1.5-1.3-.3-.2-.5-.4-.8-.6-.3-.2-.5-.4-.8-.6-.5-.4-1-.8-1.4-1.3-.5-.4-.9-.9-1.4-1.3l-1.5-1.2c-1.9-1.6-3.6-3.6-5.6-5.3-.5-.4-1-.8-1.5-1.3-.5-.4-1-.8-1.6-1.2-.3-.2-.6-.4-1-.5-.4,0-.8,0-1.1.2-.6.4-1,1-1.4,1.6,0,0,0,0,0-.2-.9,1.3-1.6,2.6-2.3,3.9-.7,1.3-1.6,2.4-2.4,3.6h0c-1.1,1.4-2.3,2.9-3.4,4.4-1.1,1.5-2.1,3.1-3,4.8-.9,1.6-1.8,3.3-2.7,4.9-.4.8-.7,1.7-1.1,2.5-.4.8-.9,1.5-1.4,2.3-.7,1-1.3,2.1-2,3.1-.7,1-1.5,2-2.3,3.1-.8,1-1.5,2.2-2,3.4-.3.6-.6,1.2-1,1.7-.2.3-.3.6-.4.9,0,.3-.2.7-.4.9h.1c0-.9,1-1.5,1.2-2.5.2-.5.3-.9.4-1.4.1-.5.3-.9.5-1.4.3-2,1.1-3.8,1.7-5.6h0c1.1-3.4,2.7-6.6,4.4-9.7,1.7-3.1,3.6-6.1,4.8-9.6.3-.9.6-1.7,1-2.6.2-.4.3-.9.5-1.3.2-.4.4-.8.5-1.3,0-.2,0-.6-.3-.7-.1,0-.3,0-.4,0h-.3c-.4.3-.9.3-1.4.3h-2.9c-1,0-1.9.1-2.9,0-.5,0-.9-.1-1.4-.2-.5,0-1,0-1.4,0-.9-.1-1.9-.2-2.8-.2-.9,0-1.9.1-2.7.6-.5.2-1,.5-1.5.5h0c.6-.8,1.6-1.4,2.6-2,1-.6,2-1.3,2.9-1.9,1-.6,2-1.1,3-1.7,1-.5,1.9-1,2.7-1.5.9-.6,1.8-1.3,2.8-1.8,1-.5,1.9-1.2,2.8-1.8.5-.3.9-.6,1.4-.8.5-.2,1-.4,1.5-.6.5-.2,1-.5,1.4-.9.2-.2.4-.3.7-.4.2-.1.5-.2.8-.3.3-.2.5-.4.6-.7l.3-.8c.2-.5.4-1,.5-1.6.3-1,.8-2,1.3-3,.9-2,1.8-4.1,2.6-6.1.7-1.6,1.2-3.2,2-4.8.4-.8.8-1.5,1.2-2.3.3-.8.6-1.6,1-2.4.8-1.5,2.1-2.7,2.8-4.3.8-1.5,1.6-3,2.4-4.5v-.2c.1,0,.2.2.2.2.2.7,0,1.4-.3,2-.2.6-.3,1.2-.5,1.9-.9,3.7-1.5,7.8-2.1,11.9h0c-.2.6-.3,1.4-.3,2.2,0,.8,0,1.5,0,1.9v-.2c-.1.8.3,1.9.1,2.3h0c0,1.1,0,.2,0,1,0,.3.1.1,0,.7-.2.1,0,2.4-.2,2.4,0-.5,0,.8-.2-.4,0,.3,0,2,0,1.8.1.1.2.8.3-.2v-.2c0-.3,0-.3,0-.4,0-1.3.1-1.5.2-2.4,0,0,0,0,0,0-.1-.6,0-1.5,0-2v-.2c.1-.3-.1-1.5,0-1.1,0-1.3,0-2.7,0-4.1,0-.7.2-1.4.3-2.1,0-.7.2-1.5.3-2.2,0-.4.3-2.2,0-1.6.2-.7.6-2.9.7-3.6,0,0,0,0,0,.2.5-1.5.2-1.8.8-3.2,0-.1.1-.8.3-1.5.1-.7.5-1.4.5-1.9,0-.2.1-.3.1-.2,0-.3,0-.7,0-1.1l-.3-.8-.4.8c-.6,1.1-1.2,2.1-1.7,3.2-.3.5-.6,1-.8,1.5-.3.5-.5.9-.8,1.3-.3.4-.6.8-.9,1.3-.2.2-.3.4-.5.7-.2.2-.3.5-.5.8-.5,1-.9,2.1-1.2,2.8-.3.6-.8,1.4-1.2,2.2-.4.9-.8,1.9-1.1,2.8v-.2c-.7,2-1.7,4.5-2.2,5.8-.4.5-.8,1.4-1.2,2.2-.2.7-.8,1.6-1.2,2.8-.2.6-.4,1.1-.6,1.7-.2.5-.4,1.2-.7,1.3,0,0-.6.1-1,.4-.4.3-.7.5-.8.5-.5.5-1.2.7-2,1.1-.8.3-1.5.8-2.2,1.3-.7.5-1.4,1-2.1,1.4-.7.4-1.5.9-2.2,1.4-.7.5-1.4,1-2.1,1.5-.7.4-1.5.8-2.3,1.2-1.6.7-3,1.6-4.4,2.5h0c-.7.5-1.5,1-2.1,1.6,0,0,0,0,0,0-.6.4-1.1.8-1.5,1.4l-.2.3h.4c.7,0,1.1-.3,1.6-.5,0,0,0,0-.2.1,1-.7,2-.7,3.4-.8h0c.3,0,.5,0,.8,0,0,0,0,0-.5,0,.6,0,1.2.1,1.9.2.3,0,.7,0,1,0,.3,0,.6,0,.9,0,.6,0,1.3.2,2,.2h2s2,0,2,0c.7,0,1.3,0,2,0,.2,0,.4-.1.5-.2.2,0,.1,0,.2,0,.1,0,.1.1,0,.5,0,.3-.2.6-.4.9l-.4.9c-.5,1.2-.8,2.5-1.3,3.7-.5,1.2-1,2.4-1.6,3.6-1.2,2.3-2.5,4.6-3.7,7v-.4c.1,0-.7,1.8-.7,1.8,0,0,0-.1,0-.2-1.3,2.3-2.2,4.8-3,7.3,0,0,0-.4,0,0-.5,1.8-1.2,2.8-1.2,3.8,0,0,0,.1,0,0-.2.6-.3,1.2-.4,1.8-.2.6-.4,1.2-.6,1.8-.2.6-.3,1.2-.6,1.7-.3.5-.9,1-.8,1.8v.5s.4-.3.4-.3c.3-.3.4-.7.5-1,0-.3.2-.6.4-.9.4-.5.8-1.2,1.1-1.8.5-1.3,1.3-2.4,2.1-3.5,1.2-1.8,2.7-3.7,3.8-5.7.3-.5.6-1,1-1.4.3-.5.6-1,.8-1.6.5-1.1.9-2.1,1.4-3.1h0c1.3-2.6,2.8-5.2,4.5-7.8,1.7-2.5,3.9-4.7,5.6-7.3,1.4-2.1,1.9-3.8,3.6-5.8h0c.3-.4.7-.9,1.2-1,.5-.1,1.1.2,1.5.5.9.7,1.7,1.4,2.6,2.2.4.4.9.7,1.3,1.1l1.2,1.2c.8.8,1.6,1.6,2.5,2.3l-.3-.2c.5.4,2,1.8,1.9,1.5l.6.5c1.3.9,2.2,1.9,3.3,2.9.6.5,1.2.9,1.8,1.5.6.5,1.2,1.1,2.1,1.6h-.2c.9.4,1.8,1,2.4,1.4,0,0,0,0-.3-.1.6.5,1.3.9,2,1.3.4.2.8.4,1.3.3.2-.2.2-.5.1-.7,0-.2-.2-.4-.3-.6-.2-.3-.5-.6-.8-1-.3-.3-.4-.7-.6-1.1-.3-.8-.5-1.6-.9-2.3l.2.3c-.7-1.4-1.4-4.3-2.6-6h0c0,0-.6-.8-.6-.8h0c-.7-1.2-1.5-2.3-2.2-3.4-.4-.5-.7-1.1-.9-1.7-.2-.6-.4-1.2-.7-1.8Z"/>
    <path class="st0" d="M67.8,27.4h0c0,0,0,0,0,0Z"/>
    <path class="st0" d="M45.8,31.2c0,.1,0,.2,0,.3,0,0,0-.2,0-.3Z"/>
  </g>
  <g>
    <path class="st0" d="M87.8,62h-.2c-.1.1-.2.2-.3.3.2-.1.3-.2.5-.3Z"/>
    <path class="st0" d="M85.8,63.7c0,0,0,0,.1,0,.3-.4.7-.8,1-1.1-.6.3-.8.9-1.1,1.1Z"/>
    <path class="st0" d="M85.4,63.9c-.4.3-.6.5-.7.6.1-.1.8-.5.7-.6Z"/>
    <path class="st0" d="M58.5,83.1s-.1,0-.2,0c0,0,.1,0,.2,0Z"/>
    <path class="st0" d="M70.6,79h.1c-2.2.8-4.9,1.2-7.3,2.1h.2c-2.2.8-4.4,1.3-6.5,2-1.1.3-2.1.7-3.2,1l-1.6.4c-.5.1-1.1.2-1.6.4h0c.4.1.8-.1,1.1-.4.3-.3.6-.6.9-.9.3-.3.6-.6,1-.8.4-.2.8-.2,1.2-.5,0,0-.1,0-.2.1.3-.2.6-.3.9-.5,0,0,0,0-.2.1,1.3-.5,3.5-1.8,4.3-2.2.3-.2.4-.3.2-.2,1.1-.6,2.2-1.2,3.3-1.9.6-.3,1.1-.7,1.7-.9.6-.3,1.2-.5,1.8-.8.6-.3,1.2-.5,1.8-.8.6-.3,1.1-.7,1.6-1,1.1-.7,2.2-1.3,3.3-2,.2-.1.3-.1.2,0,.9-.6,1.8-1.2,2.8-1.8l1.4-.9c.4-.3.8-.8,1.3-1.1.5-.3.9-.5,1.3-.9.4-.4.8-.8,1.2-1.2.9-.7,1.8-1.4,2.8-2,.1-.1-.4.2,0,0-1.3.7-2.1,1.6-3.2,2.4v-.2c-.6.6,0,.2-.7.9-.3.2,0-.1-.1,0-.4.3-.7.6-1.1.8-.5.2-.9.7-1.3,1-.3.3-.8.5-1.2.8-.4.3-.8.5-1.2.8-.5.1-1.9,1.1-2.5,1.4-.4.3-.9.5-1,.7-.8.4-1.5.9-2.3,1.3-.7.5-1.5.9-2.3,1.2l-2.4,1.1c-.8.4-1.6.9-2.4,1.3-1.5.9-3.1,1.8-4.7,2.6-.8.4-1.6.8-2.4,1.2-.4.2-.8.4-1.2.6-.2,0-.4.1-.6.2-.2,0-.5.2-.6.4-.4.4-.7.8-1.1,1.2-.4.3-.9.7-1.3.6v.3c.5-.2,1.2-.3,1.9-.4.6-.1,1.3-.3,2-.4,1.3-.4,2.6-.8,4-1.2,0,0,0,0,0,0,.6-.2,1.3-.5,2.2-.7.8-.2,1.6-.5,2.4-.8l1.2-.5c2.2-.7,4.5-1.2,6.8-1.9,2.2-.7,4.6-1.2,6.8-2,1.1-.4,2.2-.9,3.3-1.2,1.1-.4,2.3-.6,3.4-.8,1.2-.2,2.3-.5,3.5-.8.6-.2,1.1-.4,1.7-.6.5-.2,1.1-.4,1.6-.4.2,0,.2,0,.3.4.1.3.2.5.2.8.1.5.2,1.1.4,1.6.4,1.1,1.1,1.9,1.3,3,.5,2.1,1.1,4.1,1.5,6.2.2,1,.4,2.1.7,3.1.3,1,.6,2,.9,3,.3,1,.6,2,.9,3,.1.5.3,1,.5,1.6v.2c0,0,.2.3.2.3,0,.2.2.4.3.5.1.1.2.2.4.3.1,0,.3.2.4,0,0-.3.1-.5.2-.8,0-.3,0-.7,0-.9,0-.4,0-.8,0-1.2,0-.8-.1-1.6,0-2.5,0,0,0,0,0,.2.2-1.5.4-2.9.7-4.3.3-1.4.5-2.8.6-4.2h0c.1-.9.2-1.8.3-2.6.1-.9.2-1.8.3-2.7,0-1.8,0-3.7,0-5.5,0-.4.5-.4,1-.4h1.4c.4,0,1,0,1.4-.3.4-.2.8-.3,1.2-.5.9-.2,1.7-.4,2.6-.5.9-.1,1.7-.3,2.5-.5,1.3-.2,2.6-.5,4-.8.7-.1,1.4-.1,2.1,0,.7,0,1.4,0,2.1,0,1.4,0,2.8,0,4.3,0,.7,0,1.4,0,2.2,0,.4,0,.8,0,1.2,0,.2,0,.4,0,.5-.1.1,0,.3-.3.2-.4-.3-.3-.7-.3-1.1-.4-.2,0-.5,0-.7,0h-.6c-.8-.3-1.6-.5-2.4-.7-1.6-.4-3.1-.8-4.7-1h0c-2.3-.3-4.5-.7-6.8-.8-1.1,0-2.2-.4-3.4-.5-.6,0-1.1,0-1.7,0-.3,0-.6,0-.8,0-.2,0-.5,0-.6-.2.1-.2.2-.4.5-.5.2-.2.5-.3.8-.5.5-.3.9-.8,1.3-1.3.7-1,1.8-1.5,2.6-2.5l.9-1c.3-.3.6-.6,1-.9.7-.6,1.4-1.2,2-1.9.6-.7,1.3-1.3,1.9-2,.2-.2.3-.3.5-.5.1-.2.2-.4.4-.5.3-.3.8-.5,1.2-.8,1.5-1.2,2.6-2.7,3.9-4,1.3-1.3,2.6-2.6,4-3.7,1.3-.9,2.6-2,4.1-2.9.7-.5,1.6-.8,2.3-1.3.4-.2.8-.5,1.1-.7.3-.3.7-.6.6-1h0c-1.4.7-2.6,1.6-3.8,2.1-1,.4-2,.8-3,1.3-.9.5-1.8,1.1-2.7,1.7-1.8,1.2-3.6,2.4-5.4,3.5l-2.7,1.8c-.9.6-1.7,1.3-2.6,1.9-.9.6-1.8,1.1-2.8,1.6-.9.5-1.9,1-2.8,1.6-.9.5-1.7,1-2.7,1.4-.9.4-1.9.7-2.8,1.1-1.8.8-3.6,1.8-5.4,2.6-.9.4-1.8.9-2.8,1.2-.5.1-1,0-1.5,0-.5-.2-.9-.4-1.4-.6-.9-.4-1.7-1-2.6-1.5-.8-.5-1.6-1.1-2.3-1.8-1.5-1.1-3.3-1.9-5-2.9-.9-.5-1.5-1.3-2.5-1.7-.2-.1-.6-.2-.8,0-.3.2,0,.5,0,.8.3.5.6.9.9,1.2h0c.9,1.1,2.5,2,2.9,2.9h-.1c.5.5,1.5.9,1.7,1.4h.1c.7.7,0,.2.5.7.2.2.1,0,.5.5-.1.3,1.5,1.7,1.4,2-.3-.4.4.7-.3-.2,0,.1.3.5.7.8.4.3.9.3.8.2.1-.1.7-.2-.2-.3,0,0-.1,0-.2,0-.2-.2-.2-.2-.2-.3-.4-.4-.6-.8-.8-1-.2-.3-.3-.5-.6-.8,0,0,0,0,0,0-.5-.4-1-1.1-1.3-1.5v-.2c-.2-.3-1.3-.9-.9-.7-1-.8-1.9-1.8-2.9-2.8-.5-.5-1-1-1.4-1.6-.2-.3-.4-.6-.4-.7,0-.1.2-.2.3-.1.4,0,1.8,1.1,1.3.7.1.1.3.3.6.5.2.2.6.4.9.6.6.4,1.3.7,1.6.9,0,0,0,0-.2,0,1.3.9,1.7.6,2.7,1.6.1,0,.6.4,1.2.9.6.5,1.3.9,1.6,1.1.1.1.2.2,0,.2.6.3,1.1.7,1.7,1,.6.3,1.2.6,1.8.9.6.3,1.4.5,2.1.3.7-.2,1.2-.4,1.7-.6,1.7-.9,4.1-1.9,5.5-2.7.6-.3,1.4-.6,2.3-.9.9-.3,1.8-.7,2.7-1.1h-.2c.9-.4,1.9-1,2.9-1.5,1-.5,1.9-1,2.5-1.4.6-.1,1.5-.6,2.2-1.1.6-.4,1.4-1.1,2.3-1.7.9-.6,2-1.3,2.8-2,.3-.1,1.4-1,1.6-1,1.9-1.4,4-2.8,6.1-4.2,1.1-.7,2.3-1.1,3.5-1.7.6-.3,1.2-.6,1.7-1l.9-.5c.3-.2.6-.3.8-.4l-.4-.3c0,.2-.2.4-.4.7-.3.2-.5.4-.8.6-.6.4-1.2.6-1.9.9h0c-.7.4-1.5,1-2.1,1.6,0,0,0,0,0,0-.9.7-1.9,1.3-2.8,2t.1-.2c-.8.7-1.8,1.4-2.7,2.3h0s-.6.6-.6.6c0,0,0-.1.3-.4-1.6,1.4-2.9,3.1-4.4,4.6-.4.3-.8.7-1.2,1-.2.1-.4.2-.7.4-.3.2-.5.5-.6.7,0,.1-.1.2-.2.3l-.3.3-.6.6c-.4.4-.8.8-1.1,1.2-.4.4-.7.8-1.1,1.2-.4.4-.8.7-1.2,1.1-.9.7-1.4,1.7-2.2,2.4-.4.4-.8.7-1.2,1-.4.4-.8.8-1.1,1.3-.3.4-.7.8-1.1,1.1-.2.1-.5.3-.7.4-.3.2-.5.6-.7.9.4.3,1.1.4,1.4.3.4,0,.8,0,1.2,0,.8,0,1.5,0,2.3.2h-.4c.7,0,1.3.2,2,.2,0,0-.1,0-.2,0,2.5.1,5.1.5,7.6.8,0,0-.4,0,0,0,1.8.2,2.8.7,3.8.7,0,0,.1,0,0,0,.9.2,1.8.4,2.7.6l.7.2h.3c0,0,.1,0,.2,0,.2,0,.5,0,.7.2,0,0,0,.2-.1.2,0,0-.2,0-.3,0-.1,0-.2,0-.3,0h-.5c-.9-.1-1.6,0-2.5,0-1.6,0-3.3,0-4.9,0-1,0-2.2,0-3.3.2-1.1.2-2.2.4-3.3.7-1.1.2-2.2.5-3.4.6-1.1.2-2.3.4-3.3.9h0c-.3.1-.6.3-1,.3-.3,0-.7,0-1.1,0h-1.1c-.2,0-.4,0-.5.1-.2.1-.3.3-.3.5,0,1.5,0,3,0,4.4,0,.7,0,1.5-.1,2.2l-.3,2.2c-.2,1.5-.4,3-.6,4.4-.4,2.4-.8,4.1-1,6.5h0c0,.7,0,1.4,0,2.1,0,.7.2,1.4,0,2,0,0,0,0,0,0,0,0,0,0-.1,0,0,0-.1-.1-.2-.2-.1-.1-.2-.3-.3-.4-.1-.3-.3-.7-.4-1-.2-.7-.4-1.5-.6-2.2-.4-1.5-.9-2.9-1.3-4.3v.3c-.2-.6-.5-2.6-.6-2.3v-.8c-.6-1.4-.8-2.7-1.1-4.1-.2-.7-.3-1.4-.5-2.2,0-.4-.2-.8-.3-1.2-.1-.4-.3-.8-.6-1.2v.2c0-.4-.4-.9-.6-1.3-.2-.5-.3-.9-.4-1.3,0,.1,0,0,0,.3,0-.4-.1-.7-.2-1.1,0-.2-.1-.4-.2-.6,0-.2-.1-.4-.3-.6-.9-.3-1.7.1-2.4.5-1.5.7-3.1,1-4.6,1.4l.3-.2c-.7.2-1.8.4-2.9.7-1.1.3-2.3.7-3.2,1.1h.1c0,0-.9.3-.9.3h0c-2.5.8-4.9,1.4-7.3,2.2Z"/>
    <path class="st0" d="M55.4,82.3h0c0,0,0,0,0,0Z"/>
    <path class="st0" d="M86.1,60.4c0,0,.1.2.2.3,0,0-.1-.2-.2-.3Z"/>
  </g>
</svg>