<svg width="365" height="33" viewBox="0 0 365 33" fill="none" xmlns="http://www.w3.org/2000/svg">
<path d="M364.832 23.13C364.832 25.71 363.842 27.915 361.862 29.745C359.912 31.545 357.557 32.445 354.797 32.445C353.177 32.445 351.242 31.95 348.992 30.96C348.392 30.69 347.942 30.555 347.642 30.555C347.282 30.555 347.057 30.99 346.967 31.86C346.937 32.31 346.742 32.535 346.382 32.535C346.082 32.535 345.932 32.355 345.932 31.995C345.932 31.755 345.947 31.575 345.977 31.455C346.217 29.625 346.337 27.93 346.337 26.37C346.337 26.07 346.307 25.23 346.247 23.85C346.217 23.67 346.202 23.43 346.202 23.13C346.202 22.68 346.382 22.455 346.742 22.455C347.042 22.455 347.252 22.815 347.372 23.535C348.152 28.875 350.687 31.545 354.977 31.545C356.807 31.545 358.217 31.035 359.207 30.015C360.227 28.965 360.737 27.495 360.737 25.605C360.737 23.925 360.242 22.5 359.252 21.33C358.292 20.13 356.627 18.945 354.257 17.775C351.407 16.365 349.427 15 348.317 13.68C347.207 12.36 346.652 10.725 346.652 8.775C346.652 6.285 347.447 4.23 349.037 2.61C350.657 0.990001 352.697 0.18 355.157 0.18C356.177 0.18 357.587 0.525001 359.387 1.215C360.017 1.455 360.482 1.575 360.782 1.575C361.112 1.575 361.322 1.515 361.412 1.395C361.532 1.275 361.637 0.96 361.727 0.45C361.787 0.15 361.952 0 362.222 0C362.522 0 362.672 0.18 362.672 0.540001C362.672 0.780001 362.657 0.960001 362.627 1.08C362.537 1.8 362.492 2.67 362.492 3.69C362.492 5.13 362.567 6.27 362.717 7.11L362.762 7.83C362.792 8.16 362.657 8.325 362.357 8.325C362.027 8.325 361.802 7.98 361.682 7.29C361.352 5.52 360.572 4.05 359.342 2.88C358.112 1.68 356.732 1.08 355.202 1.08C353.702 1.08 352.502 1.56 351.602 2.52C350.732 3.48 350.297 4.785 350.297 6.435C350.297 8.355 350.942 9.9 352.232 11.07C352.952 11.73 354.512 12.66 356.912 13.86C359.732 15.27 361.757 16.71 362.987 18.18C364.217 19.62 364.832 21.27 364.832 23.13Z" fill="black"/>
<path d="M341.925 24.615C341.925 24.735 341.895 25.47 341.835 26.82C341.775 28.17 341.745 29.46 341.745 30.69V32.175C338.805 32.025 332.985 31.95 324.285 31.95C323.235 31.95 322.2 31.965 321.18 31.995C320.16 31.995 319.47 31.995 319.11 31.995H318.66C318.09 31.995 317.805 31.86 317.805 31.59C317.805 31.41 317.895 31.305 318.075 31.275C318.165 31.275 318.735 31.23 319.785 31.14C320.565 31.08 321.03 30.915 321.18 30.645C321.36 30.375 321.45 29.67 321.45 28.53V3.23995C321.45 2.36995 321.315 1.85995 321.045 1.70995C320.805 1.52995 319.995 1.43995 318.615 1.43995C318.135 1.43995 317.895 1.30495 317.895 1.03495C317.895 0.764952 318.225 0.629951 318.885 0.629951L326.58 0.674953C326.85 0.674953 328.545 0.659953 331.665 0.629951C334.785 0.629951 336.885 0.629951 337.965 0.629951C338.865 0.629951 339.69 0.569951 340.44 0.449951C340.5 1.73995 340.635 3.52495 340.845 5.80495L341.025 7.73995C341.055 7.88995 341.07 8.08495 341.07 8.32495C341.07 8.62495 340.935 8.77495 340.665 8.77495C340.335 8.77495 340.095 8.39995 339.945 7.64995C339.375 4.94995 338.445 3.23995 337.155 2.51995C336.195 1.97995 333.675 1.70995 329.595 1.70995H325.905V14.895H326.985C330.345 14.895 332.385 14.64 333.105 14.13C333.855 13.62 334.365 12.135 334.635 9.67495C334.695 9.04495 334.86 8.72995 335.13 8.72995C335.46 8.72995 335.625 8.99995 335.625 9.53995C335.625 10.08 335.595 10.875 335.535 11.925C335.475 12.975 335.445 13.77 335.445 14.31C335.445 17.52 335.505 19.725 335.625 20.925C335.655 21.225 335.67 21.48 335.67 21.69C335.67 22.08 335.505 22.275 335.175 22.275C334.965 22.275 334.815 22.155 334.725 21.915C334.665 21.645 334.545 20.805 334.365 19.395C334.125 17.625 333.39 16.53 332.16 16.11C331.62 15.93 330.21 15.84 327.93 15.84H325.905V30.96C332.505 30.96 336.375 30.825 337.515 30.555C339.495 30.105 340.62 28.185 340.89 24.795C340.95 24.045 341.145 23.67 341.475 23.67C341.775 23.67 341.925 23.985 341.925 24.615Z" fill="black"/>
<path d="M316.689 0.990039C316.689 1.23004 316.404 1.36504 315.834 1.39504C314.514 1.42504 313.629 1.62004 313.179 1.98004C312.729 2.34004 312.264 3.18004 311.784 4.50004L310.254 8.68504C306.564 18.795 303.969 26.55 302.469 31.95C302.379 32.31 302.229 32.49 302.019 32.49C301.779 32.49 301.284 31.365 300.534 29.115C299.184 25.005 298.134 21.915 297.384 19.845C296.574 17.565 295.374 14.16 293.784 9.63004L291.624 3.55504C291.324 2.71504 290.994 2.16004 290.634 1.89004C290.274 1.59004 289.674 1.42504 288.834 1.39504C287.844 1.36504 287.259 1.33504 287.079 1.30504C286.869 1.27504 286.764 1.15504 286.764 0.94504C286.764 0.67504 287.064 0.540039 287.664 0.540039H288.069C288.609 0.540039 289.539 0.570039 290.859 0.630038C292.209 0.66004 293.169 0.67504 293.739 0.67504C293.889 0.67504 294.459 0.66004 295.449 0.630038C296.469 0.570039 297.909 0.540039 299.769 0.540039H300.399C300.939 0.540039 301.209 0.690039 301.209 0.990039C301.209 1.32004 300.669 1.50004 299.589 1.53004L296.844 1.62004C296.214 1.65004 295.899 1.84504 295.899 2.20504C295.899 2.26504 295.929 2.38504 295.989 2.56504L296.349 3.73504C296.409 3.97504 297.864 8.20504 300.714 16.425C301.194 17.835 302.109 20.52 303.459 24.48C308.409 10.47 310.884 3.10504 310.884 2.38504C310.884 1.66504 310.149 1.33504 308.679 1.39504L307.284 1.44004C306.924 1.44004 306.744 1.32004 306.744 1.08004C306.744 0.780038 307.194 0.630038 308.094 0.630038C308.274 0.630038 308.784 0.630038 309.624 0.630038C310.464 0.66004 311.079 0.67504 311.469 0.67504H312.909L315.879 0.630038C316.419 0.630038 316.689 0.750038 316.689 0.990039Z" fill="black"/>
<path d="M285.168 31.5451C285.168 31.7851 284.988 31.9051 284.628 31.9051H284.178C283.998 31.8151 281.958 31.7701 278.058 31.7701C277.308 31.7701 276.558 31.8001 275.808 31.8601C275.418 31.8901 274.818 31.9051 274.008 31.9051C273.618 31.9051 273.423 31.7701 273.423 31.5001C273.423 31.2601 273.813 31.1251 274.593 31.0951C275.793 31.0651 276.498 30.9301 276.708 30.6901C276.918 30.4201 277.023 29.5501 277.023 28.0801V4.41013C277.023 2.94013 276.948 2.11513 276.798 1.93513C276.618 1.63513 275.793 1.45513 274.323 1.39513C273.753 1.36513 273.468 1.24513 273.468 1.03513C273.468 0.765128 273.648 0.630127 274.008 0.630127L280.083 0.720129C280.533 0.720129 281.403 0.705129 282.693 0.675129L284.403 0.630127C284.883 0.630127 285.123 0.765128 285.123 1.03513C285.123 1.27513 284.463 1.42513 283.143 1.48513C282.393 1.51513 281.928 1.65013 281.748 1.89013C281.598 2.13013 281.523 2.76013 281.523 3.78013V27.8101C281.523 29.5201 281.598 30.4501 281.748 30.6001C282.078 30.9301 283.053 31.1251 284.673 31.1851C285.003 31.1851 285.168 31.3051 285.168 31.5451Z" fill="black"/>
<path d="M270.052 31.5001C270.052 31.7701 269.767 31.9051 269.197 31.9051L262.987 31.8601C262.567 31.8601 261.952 31.8751 261.142 31.9051C260.332 31.9351 259.732 31.9501 259.342 31.9501C258.742 31.9501 258.442 31.8301 258.442 31.5901C258.442 31.3501 259.147 31.1851 260.557 31.0951C261.307 31.0351 261.742 30.9151 261.862 30.7351C261.982 30.5251 262.042 29.8201 262.042 28.6201V15.4801H248.497V28.2151C248.497 29.5651 248.602 30.3601 248.812 30.6001C249.022 30.8401 249.727 31.0051 250.927 31.0951C251.707 31.1551 252.097 31.2901 252.097 31.5001C252.097 31.7701 251.797 31.9051 251.197 31.9051H250.792C250.072 31.9051 249.307 31.8901 248.497 31.8601C247.717 31.8301 247.252 31.8151 247.102 31.8151C246.682 31.8151 246.052 31.8301 245.212 31.8601C244.372 31.8901 243.112 31.9051 241.432 31.9051C240.832 31.9051 240.532 31.7851 240.532 31.5451C240.532 31.3051 240.832 31.1551 241.432 31.0951C241.822 31.0651 242.227 31.0351 242.647 31.0051C243.307 30.9451 243.727 30.7951 243.907 30.5551C243.997 30.4051 244.042 29.5651 244.042 28.0351V4.27513C244.042 2.92513 243.967 2.13013 243.817 1.89013C243.697 1.65013 243.232 1.51513 242.422 1.48513C241.492 1.42513 240.937 1.38013 240.757 1.35013C240.607 1.32013 240.532 1.20013 240.532 0.990128C240.532 0.750127 240.727 0.630127 241.117 0.630127C241.237 0.630127 241.492 0.645128 241.882 0.675129C242.632 0.735128 244.402 0.765128 247.192 0.765128C248.722 0.765128 249.787 0.750129 250.387 0.720129C250.597 0.690129 250.867 0.675129 251.197 0.675129C251.737 0.675129 252.007 0.825129 252.007 1.12513C252.007 1.39513 251.512 1.53013 250.522 1.53013C249.562 1.53013 248.977 1.65013 248.767 1.89013C248.587 2.10013 248.497 2.80513 248.497 4.00513V14.3551H262.042V4.68013C262.042 3.09013 261.922 2.16013 261.682 1.89013C261.442 1.59013 260.602 1.45513 259.162 1.48513C258.712 1.48513 258.487 1.35013 258.487 1.08013C258.487 0.810128 258.742 0.675129 259.252 0.675129H259.477C259.897 0.675129 260.632 0.675129 261.682 0.675129C262.762 0.705129 263.572 0.720129 264.112 0.720129C265.942 0.720129 267.172 0.705129 267.802 0.675129C268.462 0.645128 268.882 0.630127 269.062 0.630127C269.692 0.630127 270.007 0.765128 270.007 1.03513C270.007 1.30513 269.347 1.45513 268.027 1.48513C267.637 1.48513 267.352 1.51513 267.172 1.57513C266.872 1.66513 266.677 1.83013 266.587 2.07013C266.527 2.31013 266.497 3.01513 266.497 4.18513V28.1251C266.497 29.5651 266.572 30.4051 266.722 30.6451C267.022 30.9751 267.892 31.1401 269.332 31.1401C269.812 31.0801 270.052 31.2001 270.052 31.5001Z" fill="black"/>
<path d="M236.333 21.8699C236.333 21.8099 236.303 22.2149 236.243 23.0849C236.123 24.8249 236.063 26.5049 236.063 28.1249C236.063 28.3049 236.093 28.6799 236.153 29.2499C236.213 29.7899 236.243 30.4499 236.243 31.2299V31.6349C236.243 32.0249 236.123 32.2199 235.883 32.2199C235.643 32.2199 235.433 31.9949 235.253 31.5449C234.833 30.5549 234.413 29.9099 233.993 29.6099C231.833 31.4999 229.238 32.4449 226.208 32.4449C221.798 32.4449 218.138 30.9149 215.228 27.8549C212.348 24.7649 210.908 20.8799 210.908 16.1999C210.908 11.4899 212.228 7.64993 214.868 4.67993C217.538 1.67993 220.973 0.179932 225.173 0.179932C226.703 0.179932 227.918 0.314932 228.818 0.584932C229.748 0.824933 230.888 1.33493 232.238 2.11493C232.898 2.50493 233.393 2.69993 233.723 2.69993C233.993 2.69993 234.248 2.45993 234.488 1.97993C234.878 1.13993 235.193 0.719934 235.433 0.719934C235.673 0.719934 235.793 0.839933 235.793 1.07993C235.793 1.19993 235.763 1.39493 235.703 1.66493C235.373 3.10493 235.208 5.80493 235.208 9.76493C235.208 10.3349 235.163 10.6649 235.073 10.7549C234.983 10.8449 234.863 10.8899 234.713 10.8899C234.413 10.8899 234.218 10.6049 234.128 10.0349C233.738 7.63493 233.183 5.84993 232.463 4.67993C230.993 2.27993 228.683 1.07993 225.533 1.07993C223.103 1.07993 221.183 1.88993 219.773 3.50993C217.223 6.41993 215.948 10.6799 215.948 16.2899C215.948 21.2999 216.998 25.1849 219.098 27.9449C220.928 30.3449 223.358 31.5449 226.388 31.5449C227.948 31.5449 229.373 31.1699 230.663 30.4199C231.953 29.6399 232.943 28.5899 233.633 27.2699C234.413 25.7399 234.968 24.0749 235.298 22.2749C235.418 21.5549 235.613 21.1949 235.883 21.1949C236.183 21.1949 236.333 21.4199 236.333 21.8699Z" fill="black"/>
<path d="M208.348 30.5551C208.348 31.8151 207.298 32.4451 205.198 32.4451C202.858 32.4451 201.028 31.4701 199.708 29.5201C199.138 28.6801 198.763 27.8701 198.583 27.0901C198.433 26.3101 198.193 24.3301 197.863 21.1501C197.683 19.2301 197.068 17.8801 196.018 17.1001C194.968 16.2901 193.258 15.8551 190.888 15.7951V29.9701C190.888 30.5701 191.368 30.9451 192.328 31.0951C192.598 31.1251 193.288 31.1551 194.398 31.1851C194.788 31.1851 194.983 31.3051 194.983 31.5451C194.983 31.8151 194.728 31.9501 194.218 31.9501H193.678C193.408 31.9201 192.103 31.9051 189.763 31.9051C189.313 31.9051 188.548 31.9201 187.468 31.9501C186.418 31.9501 185.728 31.9501 185.398 31.9501H183.643C182.983 31.9501 182.653 31.8151 182.653 31.5451C182.653 31.3351 183.088 31.2151 183.958 31.1851C185.368 31.1551 186.133 30.9751 186.253 30.6451C186.373 30.4951 186.433 29.9101 186.433 28.8901V4.05013C186.433 2.85013 186.298 2.13013 186.028 1.89013C185.788 1.65013 185.023 1.51513 183.733 1.48513C182.983 1.48513 182.608 1.35013 182.608 1.08013C182.608 0.780127 182.848 0.630127 183.328 0.630127C183.418 0.630127 183.553 0.645128 183.733 0.675129L189.718 0.810127C190.318 0.810127 191.158 0.795128 192.238 0.765128C193.438 0.705129 194.278 0.675129 194.758 0.675129C197.548 0.675129 199.753 1.30513 201.373 2.56513C203.023 3.79513 203.848 5.47513 203.848 7.60513C203.848 9.70513 203.008 11.4451 201.328 12.8251C199.648 14.1751 197.368 14.9701 194.488 15.2101C194.218 15.2401 194.068 15.2851 194.038 15.3451C194.038 15.4651 194.188 15.5251 194.488 15.5251C197.638 16.0651 199.798 17.1751 200.968 18.8551C202.168 20.5051 202.963 23.5051 203.353 27.8551C203.593 30.3151 204.433 31.5451 205.873 31.5451C206.323 31.5451 206.548 31.4551 206.548 31.2751C206.548 31.2451 206.533 31.2151 206.503 31.1851C206.353 30.8551 206.278 30.5851 206.278 30.3751C206.278 29.7451 206.608 29.4301 207.268 29.4301C207.988 29.4301 208.348 29.8051 208.348 30.5551ZM199.033 8.01013C199.033 3.72013 197.173 1.57513 193.453 1.57513C192.463 1.57513 191.788 1.71013 191.428 1.98013C191.068 2.25013 190.888 2.73013 190.888 3.42013V14.8501C193.768 14.8801 195.838 14.3551 197.098 13.2751C198.388 12.1951 199.033 10.4401 199.033 8.01013Z" fill="black"/>
<path d="M182.762 31.5899C182.762 31.8599 182.537 31.9949 182.087 31.9949C181.787 31.9949 181.517 31.9799 181.277 31.9499L175.562 31.8599L169.847 31.9499C169.637 31.9799 169.412 31.9949 169.172 31.9949C168.572 31.9949 168.272 31.8449 168.272 31.5449C168.272 31.2149 168.677 31.0499 169.487 31.0499C172.127 31.0199 173.447 30.7499 173.447 30.2399C173.447 30.2099 173.417 30.0899 173.357 29.8799L172.997 28.6649L172.772 28.0349C172.502 27.1049 171.842 25.0499 170.792 21.8699H161.162C159.362 26.6699 158.462 29.4299 158.462 30.1499C158.462 30.5699 158.642 30.8249 159.002 30.9149C159.092 30.9449 159.842 31.0049 161.252 31.0949C162.122 31.1249 162.557 31.2749 162.557 31.5449C162.557 31.8449 162.167 31.9949 161.387 31.9949C160.007 31.9949 158.402 31.9349 156.572 31.8149C156.122 31.7849 155.657 31.7699 155.177 31.7699C154.697 31.7699 154.232 31.7999 153.782 31.8599C153.542 31.8899 153.347 31.9049 153.197 31.9049C152.777 31.9049 152.567 31.7699 152.567 31.4999C152.567 31.2299 153.032 31.0799 153.962 31.0499C154.922 31.0199 155.612 30.8849 156.032 30.6449C156.452 30.3749 156.782 29.8799 157.022 29.1599C160.892 18.1199 164.042 9.25492 166.472 2.56492C166.532 2.20492 166.652 1.79992 166.832 1.34992L167.057 0.539921C167.147 0.209921 167.267 0.0449219 167.417 0.0449219C167.507 0.0449219 167.582 0.134922 167.642 0.314921C168.032 1.48492 168.917 3.92992 170.297 7.64992C171.377 10.5599 174.062 17.8649 178.352 29.5649C178.592 30.2249 178.892 30.6449 179.252 30.8249C179.642 31.0049 180.422 31.1099 181.592 31.1399C182.372 31.1699 182.762 31.3199 182.762 31.5899ZM170.522 20.8349C170.042 19.4849 169.247 17.2499 168.137 14.1299L165.977 7.96492C164.717 11.2649 163.202 15.5549 161.432 20.8349H170.522Z" fill="black"/>
<path d="M141.62 16.4699C141.62 20.9399 140.27 24.7199 137.57 27.8099C134.9 30.8999 131.615 32.4449 127.715 32.4449C123.575 32.4449 120.095 30.8849 117.275 27.7649C114.455 24.6149 113.045 20.7449 113.045 16.1549C113.045 11.4749 114.395 7.64993 117.095 4.67993C119.825 1.67993 123.305 0.179932 127.535 0.179932C131.525 0.179932 134.87 1.73993 137.57 4.85993C140.27 7.97993 141.62 11.8499 141.62 16.4699ZM136.58 16.6949C136.58 11.2049 135.455 6.92993 133.205 3.86993C131.795 1.94993 129.83 0.989932 127.31 0.989932C124.91 0.989932 123.05 1.72493 121.73 3.19493C119.3 5.89493 118.085 10.2899 118.085 16.3799C118.085 21.2099 118.925 24.9599 120.605 27.6299C122.315 30.2999 124.7 31.6349 127.76 31.6349C130.61 31.6349 132.755 30.3749 134.195 27.8549C135.785 25.0649 136.58 21.3449 136.58 16.6949Z" fill="black"/>
<path d="M109.538 8.63996C109.538 9.02996 109.358 9.22496 108.998 9.22496C108.638 9.22496 108.383 8.83496 108.233 8.05496C108.173 7.51496 108.113 6.97496 108.053 6.43496C107.843 5.35496 107.498 4.43996 107.018 3.68996C106.388 2.69996 105.353 2.06996 103.913 1.79996C102.983 1.61996 102.233 1.54496 101.663 1.57496C100.253 1.63496 99.3979 1.67996 99.0979 1.70996V28.845C99.0979 29.925 99.3829 30.6 99.9529 30.87C100.253 31.02 101.093 31.11 102.473 31.14C102.833 31.17 103.013 31.305 103.013 31.545C103.013 31.815 102.773 31.95 102.293 31.95C102.053 31.95 101.843 31.935 101.663 31.905C99.8629 31.845 98.5879 31.815 97.8379 31.815C96.8479 31.815 95.9179 31.83 95.0479 31.86C94.1779 31.89 93.0679 31.905 91.7179 31.905C91.0279 31.905 90.6829 31.785 90.6829 31.545C90.6829 31.275 91.3279 31.125 92.6179 31.095C93.5479 31.095 94.1479 30.9 94.4179 30.51C94.5679 30.27 94.6429 29.655 94.6429 28.665V1.70996C91.6729 1.73996 89.8279 1.88996 89.1079 2.15996C87.2179 2.84996 86.1079 4.69496 85.7779 7.69496C85.6879 8.59496 85.4779 9.04496 85.1479 9.04496C84.7879 9.04496 84.6079 8.72996 84.6079 8.09996C84.6079 7.76996 84.6229 7.43996 84.6529 7.10996L84.7429 6.07496C84.8329 4.69496 84.9679 2.87996 85.1479 0.62996H87.1729L96.3529 0.764961C97.4329 0.794961 99.1129 0.779961 101.393 0.719962L108.863 0.584961C108.923 2.26496 109.118 4.75496 109.448 8.05496C109.448 8.14496 109.463 8.26496 109.493 8.41496C109.523 8.53496 109.538 8.60996 109.538 8.63996Z" fill="black"/>
<path d="M82.3015 1.08013C82.3015 1.38013 81.9265 1.51513 81.1765 1.48513L80.1865 1.44013H79.3765C78.8965 1.44013 78.6115 1.53013 78.5215 1.71013C78.4315 1.86013 78.3865 2.35513 78.3865 3.19513V29.1151C78.3865 30.7051 78.3715 31.6351 78.3415 31.9051C78.3115 32.1751 78.2215 32.3101 78.0715 32.3101C77.8915 32.3101 77.6815 32.1451 77.4415 31.8151L71.6815 23.4001C68.3515 18.5101 64.3015 12.4051 59.5315 5.08513L59.5765 30.1951C59.6065 30.5851 59.8315 30.8401 60.2515 30.9601C60.6715 31.0501 61.6765 31.1101 63.2665 31.1401C63.6565 31.1401 63.8515 31.2601 63.8515 31.5001C63.8515 31.8001 63.4615 31.9501 62.6815 31.9501C62.4115 31.9501 61.5565 31.9051 60.1165 31.8151C59.6365 31.7851 59.1715 31.7701 58.7215 31.7701C58.7515 31.7701 58.4815 31.8001 57.9115 31.8601C57.3715 31.9201 56.5315 31.9501 55.3915 31.9501H54.9415C54.2515 31.9501 53.9065 31.8151 53.9065 31.5451C53.9065 31.2751 54.2065 31.1401 54.8065 31.1401C56.5765 31.1101 57.5965 31.0051 57.8665 30.8251C58.1665 30.6151 58.3165 29.9701 58.3165 28.8901V6.70513C58.3165 4.21513 57.8065 2.65513 56.7865 2.02513C56.3065 1.72513 55.4515 1.57513 54.2215 1.57513C53.4415 1.57513 53.0515 1.42513 53.0515 1.12513C53.0515 0.855129 53.2765 0.720129 53.7265 0.720129C54.3265 0.720129 55.0915 0.735129 56.0215 0.765128C56.9515 0.795128 57.4465 0.810127 57.5065 0.810127C57.5965 0.810127 58.0165 0.795128 58.7665 0.765128C59.7565 0.765128 60.7165 0.750129 61.6465 0.720129L77.1715 23.8051V3.78013C77.1715 2.85013 77.1565 2.29513 77.1265 2.11513C77.0965 1.90513 76.9765 1.75513 76.7665 1.66513C76.5565 1.54513 75.8365 1.48513 74.6065 1.48513C73.5265 1.48513 72.9865 1.35013 72.9865 1.08013C72.9865 0.780127 73.3465 0.630127 74.0665 0.630127H75.6415C76.0315 0.630127 76.4515 0.630127 76.9015 0.630127C77.3815 0.660128 77.6665 0.675129 77.7565 0.675129C77.7865 0.675129 78.0565 0.660128 78.5665 0.630127C79.0465 0.630127 79.4965 0.630127 79.9165 0.630127H81.3115C81.9715 0.630127 82.3015 0.780127 82.3015 1.08013Z" fill="black"/>
<path d="M52.1058 1.07996C52.1058 1.34996 51.8358 1.48496 51.2958 1.48496C51.2058 1.48496 50.9058 1.46996 50.3958 1.43996C50.2458 1.40996 50.0358 1.39496 49.7658 1.39496C49.0158 1.39496 48.5658 1.58996 48.4158 1.97996C48.3558 2.18996 48.3258 2.53496 48.3258 3.01496V19.89C48.3258 24.27 47.5008 27.465 45.8508 29.475C44.2308 31.455 41.6058 32.445 37.9758 32.445C33.6258 32.445 30.5658 31.215 28.7958 28.755C27.6258 27.105 27.0408 24.39 27.0408 20.61L26.9958 2.56496C26.9058 2.02496 26.5458 1.69496 25.9158 1.57496C25.7358 1.54496 25.1808 1.52996 24.2508 1.52996C23.7408 1.46996 23.4858 1.31996 23.4858 1.07996C23.4858 0.809962 23.6958 0.674962 24.1158 0.674962H24.9258C25.0758 0.674962 25.4208 0.689963 25.9608 0.719962C26.4408 0.719962 26.8758 0.719962 27.2658 0.719962L33.7008 0.674962C33.8508 0.644961 34.0308 0.62996 34.2408 0.62996C34.7508 0.62996 35.0058 0.794961 35.0058 1.12496C35.0058 1.33496 34.9158 1.45496 34.7358 1.48496C34.5558 1.51496 33.9558 1.54496 32.9358 1.57496C32.5158 1.57496 32.2308 1.60496 32.0808 1.66496C31.7808 1.78496 31.6158 1.99496 31.5858 2.29496C31.5558 2.41496 31.5408 3.26996 31.5408 4.85996V20.97C31.5408 24.93 32.1708 27.63 33.4308 29.07C34.6908 30.51 36.5658 31.23 39.0558 31.23C43.6158 31.23 46.1958 28.635 46.7958 23.445C46.8858 22.665 46.9308 19.365 46.9308 13.545V10.98L46.9758 7.37996L46.9308 4.27496C46.9308 3.97496 46.9308 3.64496 46.9308 3.28496C46.9608 2.89496 46.9758 2.72996 46.9758 2.78996C46.9758 2.12996 46.6608 1.72496 46.0308 1.57496C45.8208 1.51496 45.2058 1.48496 44.1858 1.48496C43.5858 1.48496 43.2858 1.31996 43.2858 0.989961C43.2858 0.719961 43.4958 0.584961 43.9158 0.584961C44.1558 0.584961 44.3508 0.59996 44.5008 0.62996C44.8608 0.659961 46.1658 0.674962 48.4158 0.674962C48.7458 0.674962 49.1208 0.659961 49.5408 0.62996C49.9308 0.62996 50.2158 0.62996 50.3958 0.62996H51.0708C51.7608 0.62996 52.1058 0.77996 52.1058 1.07996Z" fill="black"/>
<path d="M21.375 8.14513C21.375 11.0551 20.13 13.3201 17.64 14.9401C16.08 15.9601 14.1 16.4701 11.7 16.4701C10.68 16.4701 9.525 16.3651 8.235 16.1551V28.9351C8.235 29.6251 8.265 30.0601 8.325 30.2401C8.475 30.6601 8.805 30.9151 9.315 31.0051C10.185 31.1251 11.025 31.1851 11.835 31.1851C12.165 31.1851 12.33 31.2901 12.33 31.5001C12.33 31.8001 12.12 31.9501 11.7 31.9501C11.52 31.9501 11.37 31.9351 11.25 31.9051C9.6 31.9351 6.495 31.9501 1.935 31.9501H1.35C0.45 31.9501 0 31.8001 0 31.5001C0 31.2901 0.315 31.1851 0.945 31.1851C2.355 31.1851 3.165 31.0501 3.375 30.7801C3.615 30.6601 3.75 30.3601 3.78 29.8801V3.33013C3.78 2.40013 3.525 1.83013 3.015 1.62013C2.715 1.50013 2.19 1.44013 1.44 1.44013H0.99C0.9 1.47013 0.795 1.48513 0.675 1.48513C0.225 1.48513 0 1.35013 0 1.08013C0 0.780127 0.42 0.630127 1.26 0.630127H11.16C14.58 0.630127 17.085 1.23013 18.675 2.43013C20.475 3.78013 21.375 5.68513 21.375 8.14513ZM16.65 8.23513C16.65 3.73513 14.76 1.48513 10.98 1.48513C9.72 1.48513 8.895 1.69513 8.505 2.11513C8.325 2.29513 8.235 2.76013 8.235 3.51013V15.4801C8.475 15.5101 8.745 15.5251 9.045 15.5251C11.025 15.5251 12.705 15.0901 14.085 14.2201C15.795 13.1401 16.65 11.1451 16.65 8.23513Z" fill="black"/>
</svg>
